<svg xmlns="http://www.w3.org/2000/svg" xmlns:xlink="http://www.w3.org/1999/xlink" width="500" zoomAndPan="magnify" viewBox="0 0 375 374.999991" height="500" preserveAspectRatio="xMidYMid meet" version="1.0"><defs><g/><clipPath id="00f18cb27c"><path d="M 128 100 L 248 100 L 248 124 L 128 124 Z M 128 100 " clip-rule="nonzero"/></clipPath><clipPath id="2eb8e010d9"><path d="M 126.289062 82.050781 L 246.925781 76.773438 L 248.761719 118.730469 L 128.128906 124.011719 Z M 126.289062 82.050781 " clip-rule="nonzero"/></clipPath><clipPath id="b6ff1cd7d6"><path d="M 126.289062 82.050781 L 246.925781 76.773438 L 248.761719 118.730469 L 128.128906 124.011719 Z M 126.289062 82.050781 " clip-rule="nonzero"/></clipPath><clipPath id="3af4c5dd56"><path d="M 127 99 L 249 99 L 249 124 L 127 124 Z M 127 99 " clip-rule="nonzero"/></clipPath><clipPath id="63ee5449f4"><path d="M 126.289062 82.050781 L 246.925781 76.773438 L 248.761719 118.730469 L 128.128906 124.011719 Z M 126.289062 82.050781 " clip-rule="nonzero"/></clipPath><clipPath id="b078379d75"><path d="M 126.289062 82.050781 L 246.925781 76.773438 L 248.761719 118.730469 L 128.128906 124.011719 Z M 126.289062 82.050781 " clip-rule="nonzero"/></clipPath><clipPath id="18e61dad04"><path d="M 127 77 L 248 77 L 248 118 L 127 118 Z M 127 77 " clip-rule="nonzero"/></clipPath><clipPath id="d2899ec0c2"><path d="M 126.289062 82.050781 L 246.925781 76.773438 L 248.761719 118.730469 L 128.128906 124.011719 Z M 126.289062 82.050781 " clip-rule="nonzero"/></clipPath><clipPath id="5438a523a7"><path d="M 126.289062 82.050781 L 246.925781 76.773438 L 248.761719 118.730469 L 128.128906 124.011719 Z M 126.289062 82.050781 " clip-rule="nonzero"/></clipPath><clipPath id="c318d6b7eb"><path d="M 218 77 L 225 77 L 225 80 L 218 80 Z M 218 77 " clip-rule="nonzero"/></clipPath><clipPath id="4ed0dfd028"><path d="M 126.289062 82.050781 L 246.925781 76.773438 L 248.761719 118.730469 L 128.128906 124.011719 Z M 126.289062 82.050781 " clip-rule="nonzero"/></clipPath><clipPath id="7f46daba5e"><path d="M 126.289062 82.050781 L 246.925781 76.773438 L 248.761719 118.730469 L 128.128906 124.011719 Z M 126.289062 82.050781 " clip-rule="nonzero"/></clipPath><clipPath id="2935fce51e"><path d="M 126 78 L 216 78 L 216 102 L 126 102 Z M 126 78 " clip-rule="nonzero"/></clipPath><clipPath id="186b3beb08"><path d="M 126.289062 82.050781 L 246.925781 76.773438 L 248.761719 118.730469 L 128.128906 124.011719 Z M 126.289062 82.050781 " clip-rule="nonzero"/></clipPath><clipPath id="5bdd6bf7ff"><path d="M 126.289062 82.050781 L 246.925781 76.773438 L 248.761719 118.730469 L 128.128906 124.011719 Z M 126.289062 82.050781 " clip-rule="nonzero"/></clipPath><clipPath id="f48f376372"><path d="M 127 104 L 150 104 L 150 119 L 127 119 Z M 127 104 " clip-rule="nonzero"/></clipPath><clipPath id="9deb0d01a7"><path d="M 126.289062 82.050781 L 246.925781 76.773438 L 248.761719 118.730469 L 128.128906 124.011719 Z M 126.289062 82.050781 " clip-rule="nonzero"/></clipPath><clipPath id="18dfdf69d5"><path d="M 126.289062 82.050781 L 246.925781 76.773438 L 248.761719 118.730469 L 128.128906 124.011719 Z M 126.289062 82.050781 " clip-rule="nonzero"/></clipPath><clipPath id="aaf9d51d4a"><path d="M 153 76 L 249 76 L 249 118 L 153 118 Z M 153 76 " clip-rule="nonzero"/></clipPath><clipPath id="ae93f89dfb"><path d="M 126.289062 82.050781 L 246.925781 76.773438 L 248.761719 118.730469 L 128.128906 124.011719 Z M 126.289062 82.050781 " clip-rule="nonzero"/></clipPath><clipPath id="242d0e92c2"><path d="M 126.289062 82.050781 L 246.925781 76.773438 L 248.761719 118.730469 L 128.128906 124.011719 Z M 126.289062 82.050781 " clip-rule="nonzero"/></clipPath><clipPath id="36d085ae7e"><path d="M 136 159 L 237 159 L 237 184 L 136 184 Z M 136 159 " clip-rule="nonzero"/></clipPath><clipPath id="b76f0b6910"><path d="M 139.355469 139.867188 L 239.292969 150.507812 L 235.636719 184.8125 L 135.703125 174.171875 Z M 139.355469 139.867188 " clip-rule="nonzero"/></clipPath><clipPath id="4982272d53"><path d="M 139.355469 139.867188 L 239.292969 150.507812 L 235.636719 184.8125 L 135.703125 174.171875 Z M 139.355469 139.867188 " clip-rule="nonzero"/></clipPath><clipPath id="040c711eeb"><path d="M 136 158 L 238 158 L 238 185 L 136 185 Z M 136 158 " clip-rule="nonzero"/></clipPath><clipPath id="c713b25d68"><path d="M 139.355469 139.867188 L 239.292969 150.507812 L 235.636719 184.8125 L 135.703125 174.171875 Z M 139.355469 139.867188 " clip-rule="nonzero"/></clipPath><clipPath id="432c03b698"><path d="M 139.355469 139.867188 L 239.292969 150.507812 L 235.636719 184.8125 L 135.703125 174.171875 Z M 139.355469 139.867188 " clip-rule="nonzero"/></clipPath><clipPath id="70559eb876"><path d="M 137 140 L 239 140 L 239 180 L 137 180 Z M 137 140 " clip-rule="nonzero"/></clipPath><clipPath id="d78990938c"><path d="M 139.355469 139.867188 L 239.292969 150.507812 L 235.636719 184.8125 L 135.703125 174.171875 Z M 139.355469 139.867188 " clip-rule="nonzero"/></clipPath><clipPath id="1b7a5a015d"><path d="M 139.355469 139.867188 L 239.292969 150.507812 L 235.636719 184.8125 L 135.703125 174.171875 Z M 139.355469 139.867188 " clip-rule="nonzero"/></clipPath><clipPath id="b2b4d43f33"><path d="M 215 148 L 221 148 L 221 150 L 215 150 Z M 215 148 " clip-rule="nonzero"/></clipPath><clipPath id="af4b28970a"><path d="M 139.355469 139.867188 L 239.292969 150.507812 L 235.636719 184.8125 L 135.703125 174.171875 Z M 139.355469 139.867188 " clip-rule="nonzero"/></clipPath><clipPath id="4519460e5b"><path d="M 139.355469 139.867188 L 239.292969 150.507812 L 235.636719 184.8125 L 135.703125 174.171875 Z M 139.355469 139.867188 " clip-rule="nonzero"/></clipPath><clipPath id="682087b7cf"><path d="M 137 140 L 214 140 L 214 156 L 137 156 Z M 137 140 " clip-rule="nonzero"/></clipPath><clipPath id="171ad56fbf"><path d="M 139.355469 139.867188 L 239.292969 150.507812 L 235.636719 184.8125 L 135.703125 174.171875 Z M 139.355469 139.867188 " clip-rule="nonzero"/></clipPath><clipPath id="8464f2e55c"><path d="M 139.355469 139.867188 L 239.292969 150.507812 L 235.636719 184.8125 L 135.703125 174.171875 Z M 139.355469 139.867188 " clip-rule="nonzero"/></clipPath><clipPath id="3ae34ee452"><path d="M 136 158 L 155 158 L 155 172 L 136 172 Z M 136 158 " clip-rule="nonzero"/></clipPath><clipPath id="6151d54a3b"><path d="M 139.355469 139.867188 L 239.292969 150.507812 L 235.636719 184.8125 L 135.703125 174.171875 Z M 139.355469 139.867188 " clip-rule="nonzero"/></clipPath><clipPath id="844297472d"><path d="M 139.355469 139.867188 L 239.292969 150.507812 L 235.636719 184.8125 L 135.703125 174.171875 Z M 139.355469 139.867188 " clip-rule="nonzero"/></clipPath><clipPath id="cce76a89d0"><path d="M 157 148 L 239 148 L 239 181 L 157 181 Z M 157 148 " clip-rule="nonzero"/></clipPath><clipPath id="045987b8fe"><path d="M 139.355469 139.867188 L 239.292969 150.507812 L 235.636719 184.8125 L 135.703125 174.171875 Z M 139.355469 139.867188 " clip-rule="nonzero"/></clipPath><clipPath id="df59c2cdc4"><path d="M 139.355469 139.867188 L 239.292969 150.507812 L 235.636719 184.8125 L 135.703125 174.171875 Z M 139.355469 139.867188 " clip-rule="nonzero"/></clipPath><clipPath id="1cf0dcfa7d"><path d="M 135.679688 220 L 236.179688 220 L 236.179688 236.042969 L 135.679688 236.042969 Z M 135.679688 220 " clip-rule="nonzero"/></clipPath><clipPath id="df29b1ef53"><path d="M 212 201.542969 L 218 201.542969 L 218 203 L 212 203 Z M 212 201.542969 " clip-rule="nonzero"/></clipPath><clipPath id="ea03112cd9"><path d="M 135.679688 201.542969 L 211 201.542969 L 211 218 L 135.679688 218 Z M 135.679688 201.542969 " clip-rule="nonzero"/></clipPath><clipPath id="923471c765"><path d="M 135.679688 220 L 154 220 L 154 232 L 135.679688 232 Z M 135.679688 220 " clip-rule="nonzero"/></clipPath><clipPath id="4798110cf1"><path d="M 156 201.542969 L 236.179688 201.542969 L 236.179688 232 L 156 232 Z M 156 201.542969 " clip-rule="nonzero"/></clipPath><clipPath id="85aa348a4d"><path d="M 143 145 L 165 145 L 165 165 L 143 165 Z M 143 145 " clip-rule="nonzero"/></clipPath><clipPath id="5a085a23eb"><path d="M 145.558594 144.625 L 165.65625 147.09375 L 163.367188 165.703125 L 143.269531 163.234375 Z M 145.558594 144.625 " clip-rule="nonzero"/></clipPath><clipPath id="32910b52f6"><path d="M 145.558594 144.625 L 165.65625 147.09375 L 163.367188 165.703125 L 143.269531 163.234375 Z M 145.558594 144.625 " clip-rule="nonzero"/></clipPath></defs><path stroke-linecap="butt" transform="matrix(-0.00278914, 0.750115, -0.749995, -0.00278869, 149.184765, -9.60765)" fill="none" stroke-linejoin="miter" d="M -0.0000664641 2.001576 L 292.965526 2.000621 " stroke="#ff914d" stroke-width="4" stroke-opacity="1" stroke-miterlimit="4"/><path stroke-linecap="butt" transform="matrix(-0.00278914, 0.750115, -0.749995, -0.00278869, 226.01057, -9.60765)" fill="none" stroke-linejoin="miter" d="M -0.0000779663 1.998482 L 292.965514 1.997527 " stroke="#ff914d" stroke-width="4" stroke-opacity="1" stroke-miterlimit="4"/><g clip-path="url(#00f18cb27c)"><g clip-path="url(#2eb8e010d9)"><g clip-path="url(#b6ff1cd7d6)"><path fill="#ff914d" d="M 247.203125 100.394531 L 247.792969 113.882812 C 247.839844 115.019531 247.429688 116.070312 246.722656 116.84375 C 246.015625 117.621094 245.011719 118.125 243.886719 118.175781 L 132.933594 123.03125 C 131.804688 123.082031 130.761719 122.664062 129.992188 121.953125 C 129.21875 121.242188 128.71875 120.234375 128.667969 119.097656 L 128.078125 105.609375 Z M 247.203125 100.394531 " fill-opacity="1" fill-rule="nonzero"/></g></g></g><g clip-path="url(#3af4c5dd56)"><g clip-path="url(#63ee5449f4)"><g clip-path="url(#b078379d75)"><path fill="#000000" d="M 243.917969 118.933594 L 132.96875 123.789062 C 131.671875 123.84375 130.4375 123.390625 129.480469 122.511719 C 128.527344 121.628906 127.96875 120.425781 127.914062 119.125 L 127.324219 105.636719 C 127.304688 105.21875 127.625 104.863281 128.042969 104.847656 C 128.460938 104.828125 128.8125 105.152344 128.832031 105.574219 L 129.421875 119.0625 C 129.460938 119.957031 129.84375 120.785156 130.5 121.390625 C 131.15625 121.996094 132.007812 122.308594 132.902344 122.269531 L 243.851562 117.414062 C 244.742188 117.375 245.5625 116.988281 246.167969 116.328125 C 246.765625 115.667969 247.078125 114.808594 247.039062 113.914062 L 246.445312 100.425781 C 246.429688 100.003906 246.75 99.652344 247.167969 99.632812 C 247.585938 99.613281 247.9375 99.9375 247.953125 100.359375 L 248.546875 113.847656 C 248.601562 115.148438 248.152344 116.394531 247.277344 117.355469 C 246.402344 118.316406 245.210938 118.875 243.917969 118.933594 Z M 243.917969 118.933594 " fill-opacity="1" fill-rule="nonzero"/></g></g></g><g clip-path="url(#18e61dad04)"><g clip-path="url(#d2899ec0c2)"><g clip-path="url(#5438a523a7)"><path fill="#ffffff" d="M 131.164062 82.613281 L 242.117188 77.757812 C 242.382812 77.746094 242.652344 77.761719 242.917969 77.800781 C 243.183594 77.84375 243.441406 77.910156 243.695312 78.003906 C 243.945312 78.09375 244.1875 78.210938 244.417969 78.351562 C 244.644531 78.492188 244.859375 78.652344 245.058594 78.835938 C 245.257812 79.019531 245.433594 79.21875 245.59375 79.4375 C 245.753906 79.65625 245.890625 79.886719 246.003906 80.132812 C 246.117188 80.378906 246.207031 80.632812 246.269531 80.894531 C 246.332031 81.15625 246.371094 81.421875 246.382812 81.691406 L 247.5625 108.667969 C 247.574219 108.941406 247.5625 109.207031 247.519531 109.476562 C 247.480469 109.742188 247.414062 110.003906 247.320312 110.257812 C 247.230469 110.511719 247.113281 110.753906 246.976562 110.984375 C 246.835938 111.21875 246.675781 111.433594 246.492188 111.632812 C 246.3125 111.832031 246.113281 112.011719 245.898438 112.171875 C 245.679688 112.332031 245.449219 112.46875 245.207031 112.582031 C 244.964844 112.695312 244.710938 112.785156 244.449219 112.847656 C 244.191406 112.914062 243.925781 112.953125 243.65625 112.964844 L 132.707031 117.820312 C 132.4375 117.832031 132.171875 117.816406 131.90625 117.773438 C 131.640625 117.734375 131.378906 117.667969 131.128906 117.574219 C 130.875 117.480469 130.636719 117.367188 130.40625 117.226562 C 130.175781 117.085938 129.960938 116.921875 129.761719 116.742188 C 129.566406 116.558594 129.386719 116.355469 129.226562 116.140625 C 129.070312 115.921875 128.933594 115.6875 128.820312 115.445312 C 128.707031 115.199219 128.617188 114.945312 128.554688 114.683594 C 128.488281 114.417969 128.449219 114.152344 128.4375 113.882812 L 127.257812 86.90625 C 127.246094 86.636719 127.261719 86.367188 127.300781 86.101562 C 127.34375 85.832031 127.410156 85.574219 127.5 85.320312 C 127.59375 85.066406 127.707031 84.820312 127.847656 84.589844 C 127.988281 84.359375 128.148438 84.144531 128.328125 83.945312 C 128.507812 83.746094 128.707031 83.566406 128.925781 83.40625 C 129.140625 83.246094 129.371094 83.109375 129.613281 82.996094 C 129.859375 82.878906 130.109375 82.792969 130.371094 82.726562 C 130.632812 82.664062 130.898438 82.625 131.164062 82.613281 Z M 131.164062 82.613281 " fill-opacity="1" fill-rule="nonzero"/></g></g></g><g clip-path="url(#c318d6b7eb)"><g clip-path="url(#4ed0dfd028)"><g clip-path="url(#7f46daba5e)"><path fill="#000000" d="M 223.738281 79.324219 L 219.382812 79.511719 C 218.964844 79.53125 218.613281 79.207031 218.59375 78.785156 C 218.578125 78.367188 218.898438 78.011719 219.316406 77.996094 L 223.671875 77.804688 C 224.089844 77.785156 224.441406 78.109375 224.460938 78.53125 C 224.480469 78.949219 224.15625 79.304688 223.738281 79.324219 Z M 223.738281 79.324219 " fill-opacity="1" fill-rule="nonzero"/></g></g></g><g clip-path="url(#2935fce51e)"><g clip-path="url(#186b3beb08)"><g clip-path="url(#5bdd6bf7ff)"><path fill="#000000" d="M 127.882812 101.15625 C 127.464844 101.171875 127.113281 100.847656 127.09375 100.429688 L 126.503906 86.941406 C 126.449219 85.636719 126.898438 84.390625 127.769531 83.429688 C 128.644531 82.46875 129.839844 81.910156 131.132812 81.855469 L 214.960938 78.183594 C 215.378906 78.167969 215.730469 78.492188 215.75 78.910156 C 215.769531 79.332031 215.445312 79.683594 215.027344 79.703125 L 131.199219 83.371094 C 130.308594 83.410156 129.488281 83.796875 128.882812 84.457031 C 128.285156 85.121094 127.972656 85.976562 128.011719 86.875 L 128.601562 100.363281 C 128.621094 100.78125 128.300781 101.136719 127.882812 101.15625 Z M 127.882812 101.15625 " fill-opacity="1" fill-rule="nonzero"/></g></g></g><g clip-path="url(#f48f376372)"><g clip-path="url(#9deb0d01a7)"><g clip-path="url(#18dfdf69d5)"><path fill="#000000" d="M 149.007812 117.867188 L 132.738281 118.578125 C 131.445312 118.636719 130.207031 118.183594 129.253906 117.300781 C 128.296875 116.417969 127.742188 115.21875 127.683594 113.917969 L 127.324219 105.640625 C 127.304688 105.222656 127.625 104.867188 128.042969 104.847656 C 128.460938 104.832031 128.8125 105.15625 128.832031 105.574219 L 129.191406 113.851562 C 129.234375 114.746094 129.617188 115.574219 130.273438 116.179688 C 130.929688 116.785156 131.78125 117.097656 132.671875 117.058594 L 148.941406 116.347656 C 149.359375 116.328125 149.710938 116.652344 149.726562 117.074219 C 149.746094 117.496094 149.425781 117.847656 149.007812 117.867188 Z M 149.007812 117.867188 " fill-opacity="1" fill-rule="nonzero"/></g></g></g><g clip-path="url(#aaf9d51d4a)"><g clip-path="url(#ae93f89dfb)"><g clip-path="url(#242d0e92c2)"><path fill="#000000" d="M 243.691406 113.722656 L 153.929688 117.652344 C 153.511719 117.667969 153.160156 117.34375 153.144531 116.925781 C 153.125 116.503906 153.445312 116.152344 153.863281 116.132812 L 243.625 112.203125 C 244.515625 112.164062 245.335938 111.777344 245.941406 111.117188 C 246.542969 110.457031 246.851562 109.601562 246.8125 108.703125 L 245.632812 81.726562 C 245.59375 80.832031 245.207031 80.003906 244.550781 79.394531 C 243.894531 78.789062 243.042969 78.476562 242.152344 78.515625 L 228.398438 79.117188 C 227.980469 79.132812 227.628906 78.808594 227.609375 78.390625 C 227.589844 77.96875 227.914062 77.617188 228.332031 77.597656 L 242.085938 76.996094 C 243.378906 76.9375 244.617188 77.390625 245.570312 78.273438 C 246.527344 79.152344 247.082031 80.355469 247.140625 81.65625 L 248.320312 108.632812 C 248.375 109.933594 247.925781 111.179688 247.054688 112.140625 C 246.179688 113.101562 244.984375 113.660156 243.691406 113.71875 Z M 243.691406 113.722656 " fill-opacity="1" fill-rule="nonzero"/></g></g></g><g clip-path="url(#36d085ae7e)"><g clip-path="url(#b76f0b6910)"><g clip-path="url(#4982272d53)"><path fill="#ff914d" d="M 236.609375 169.726562 L 235.4375 180.753906 C 235.335938 181.683594 234.867188 182.484375 234.191406 183.027344 C 233.515625 183.570312 232.628906 183.859375 231.691406 183.757812 L 139.78125 173.972656 C 138.84375 173.871094 138.039062 173.40625 137.492188 172.730469 C 136.941406 172.058594 136.652344 171.175781 136.753906 170.246094 L 137.925781 159.21875 Z M 236.609375 169.726562 " fill-opacity="1" fill-rule="nonzero"/></g></g></g><g clip-path="url(#040c711eeb)"><g clip-path="url(#c713b25d68)"><g clip-path="url(#432c03b698)"><path fill="#000000" d="M 231.628906 184.378906 L 139.714844 174.589844 C 138.640625 174.476562 137.679688 173.957031 137.003906 173.121094 C 136.324219 172.289062 136.015625 171.242188 136.128906 170.179688 L 137.300781 159.148438 C 137.339844 158.804688 137.648438 158.558594 137.992188 158.59375 C 138.339844 158.632812 138.589844 158.9375 138.550781 159.28125 L 137.378906 170.3125 C 137.300781 171.042969 137.511719 171.761719 137.980469 172.339844 C 138.445312 172.910156 139.105469 173.269531 139.847656 173.347656 L 231.757812 183.136719 C 232.496094 183.214844 233.21875 183.003906 233.796875 182.542969 C 234.375 182.078125 234.734375 181.417969 234.8125 180.6875 L 235.988281 169.65625 C 236.023438 169.316406 236.332031 169.066406 236.675781 169.105469 C 237.023438 169.140625 237.273438 169.449219 237.234375 169.792969 L 236.0625 180.820312 C 235.949219 181.886719 235.425781 182.839844 234.585938 183.511719 C 233.75 184.183594 232.695312 184.492188 231.628906 184.378906 Z M 231.628906 184.378906 " fill-opacity="1" fill-rule="nonzero"/></g></g></g><g clip-path="url(#70559eb876)"><g clip-path="url(#d78990938c)"><g clip-path="url(#1b7a5a015d)"><path fill="#ffffff" d="M 143.300781 140.921875 L 235.210938 150.710938 C 235.660156 150.757812 236.082031 150.890625 236.480469 151.105469 C 236.875 151.320312 237.21875 151.601562 237.5 151.953125 C 237.785156 152.300781 237.992188 152.691406 238.117188 153.121094 C 238.246094 153.550781 238.285156 153.988281 238.238281 154.4375 L 235.890625 176.492188 C 235.84375 176.9375 235.710938 177.359375 235.496094 177.753906 C 235.28125 178.148438 234.996094 178.484375 234.644531 178.765625 C 234.292969 179.046875 233.902344 179.25 233.46875 179.378906 C 233.035156 179.503906 232.59375 179.542969 232.148438 179.496094 L 140.234375 169.710938 C 139.785156 169.660156 139.363281 169.53125 138.964844 169.316406 C 138.570312 169.101562 138.230469 168.816406 137.945312 168.46875 C 137.660156 168.121094 137.453125 167.730469 137.328125 167.300781 C 137.199219 166.867188 137.160156 166.429688 137.207031 165.984375 L 139.554688 143.925781 C 139.601562 143.480469 139.734375 143.0625 139.949219 142.667969 C 140.164062 142.273438 140.449219 141.9375 140.800781 141.652344 C 141.152344 141.371094 141.542969 141.167969 141.976562 141.042969 C 142.410156 140.914062 142.851562 140.875 143.300781 140.921875 Z M 143.300781 140.921875 " fill-opacity="1" fill-rule="nonzero"/></g></g></g><g clip-path="url(#b2b4d43f33)"><g clip-path="url(#af4b28970a)"><g clip-path="url(#4519460e5b)"><path fill="#000000" d="M 219.894531 149.707031 L 216.285156 149.324219 C 215.941406 149.285156 215.691406 148.980469 215.726562 148.636719 C 215.761719 148.292969 216.070312 148.046875 216.417969 148.082031 L 220.027344 148.464844 C 220.375 148.503906 220.621094 148.808594 220.585938 149.152344 C 220.550781 149.496094 220.242188 149.746094 219.894531 149.707031 Z M 219.894531 149.707031 " fill-opacity="1" fill-rule="nonzero"/></g></g></g><g clip-path="url(#682087b7cf)"><g clip-path="url(#171ad56fbf)"><g clip-path="url(#8464f2e55c)"><path fill="#000000" d="M 138.316406 155.578125 C 137.96875 155.539062 137.71875 155.234375 137.757812 154.890625 L 138.929688 143.859375 C 139.042969 142.796875 139.566406 141.839844 140.40625 141.167969 C 141.242188 140.496094 142.292969 140.1875 143.363281 140.304688 L 212.8125 147.699219 C 213.15625 147.734375 213.40625 148.042969 213.371094 148.386719 C 213.332031 148.730469 213.023438 148.976562 212.679688 148.941406 L 143.234375 141.542969 C 142.496094 141.464844 141.773438 141.675781 141.195312 142.140625 C 140.617188 142.601562 140.257812 143.261719 140.179688 143.992188 L 139.003906 155.023438 C 138.96875 155.367188 138.660156 155.613281 138.316406 155.578125 Z M 138.316406 155.578125 " fill-opacity="1" fill-rule="nonzero"/></g></g></g><g clip-path="url(#3ae34ee452)"><g clip-path="url(#6151d54a3b)"><g clip-path="url(#844297472d)"><path fill="#000000" d="M 153.644531 171.765625 L 140.167969 170.328125 C 139.09375 170.214844 138.132812 169.695312 137.457031 168.859375 C 136.777344 168.027344 136.46875 166.980469 136.582031 165.917969 L 137.300781 159.152344 C 137.339844 158.808594 137.648438 158.5625 137.992188 158.597656 C 138.339844 158.632812 138.589844 158.941406 138.550781 159.285156 L 137.832031 166.050781 C 137.753906 166.785156 137.96875 167.503906 138.433594 168.078125 C 138.898438 168.652344 139.5625 169.011719 140.300781 169.089844 L 153.777344 170.523438 C 154.121094 170.558594 154.371094 170.867188 154.335938 171.210938 C 154.296875 171.554688 153.988281 171.800781 153.644531 171.765625 Z M 153.644531 171.765625 " fill-opacity="1" fill-rule="nonzero"/></g></g></g><g clip-path="url(#cce76a89d0)"><g clip-path="url(#045987b8fe)"><g clip-path="url(#df59c2cdc4)"><path fill="#000000" d="M 232.082031 180.117188 L 157.722656 172.199219 C 157.378906 172.164062 157.128906 171.855469 157.164062 171.511719 C 157.199219 171.167969 157.507812 170.921875 157.855469 170.957031 L 232.214844 178.875 C 232.953125 178.953125 233.675781 178.742188 234.253906 178.28125 C 234.828125 177.820312 235.191406 177.160156 235.269531 176.425781 L 237.617188 154.371094 C 237.695312 153.636719 237.480469 152.917969 237.015625 152.34375 C 236.546875 151.769531 235.886719 151.410156 235.148438 151.328125 L 223.753906 150.117188 C 223.40625 150.078125 223.160156 149.773438 223.195312 149.429688 C 223.230469 149.085938 223.539062 148.839844 223.886719 148.875 L 235.28125 150.089844 C 236.351562 150.203125 237.3125 150.722656 237.992188 151.558594 C 238.667969 152.390625 238.980469 153.4375 238.867188 154.5 L 236.515625 176.554688 C 236.402344 177.621094 235.882812 178.574219 235.042969 179.25 C 234.203125 179.921875 233.152344 180.226562 232.082031 180.113281 Z M 232.082031 180.117188 " fill-opacity="1" fill-rule="nonzero"/></g></g></g><path fill="#ff914d" d="M 235.550781 220.9375 L 235.550781 232.027344 C 235.550781 232.964844 235.167969 233.808594 234.550781 234.421875 C 233.9375 235.035156 233.085938 235.414062 232.144531 235.414062 L 139.710938 235.414062 C 138.773438 235.414062 137.917969 235.035156 137.304688 234.421875 C 136.6875 233.808594 136.308594 232.964844 136.308594 232.027344 L 136.308594 220.9375 Z M 235.550781 220.9375 " fill-opacity="1" fill-rule="nonzero"/><g clip-path="url(#1cf0dcfa7d)"><path fill="#000000" d="M 232.144531 236.035156 L 139.710938 236.035156 C 138.632812 236.035156 137.621094 235.617188 136.859375 234.859375 C 136.097656 234.105469 135.679688 233.097656 135.679688 232.027344 L 135.679688 220.9375 C 135.679688 220.589844 135.960938 220.3125 136.308594 220.3125 C 136.65625 220.3125 136.933594 220.589844 136.933594 220.9375 L 136.933594 232.027344 C 136.933594 232.765625 137.222656 233.457031 137.746094 233.980469 C 138.269531 234.5 138.96875 234.785156 139.710938 234.785156 L 232.144531 234.785156 C 232.886719 234.785156 233.582031 234.5 234.109375 233.980469 C 234.632812 233.457031 234.921875 232.765625 234.921875 232.027344 L 234.921875 220.9375 C 234.921875 220.589844 235.203125 220.3125 235.550781 220.3125 C 235.898438 220.3125 236.175781 220.589844 236.175781 220.9375 L 236.175781 232.027344 C 236.175781 233.097656 235.757812 234.105469 234.996094 234.859375 C 234.234375 235.617188 233.222656 236.035156 232.144531 236.035156 Z M 232.144531 236.035156 " fill-opacity="1" fill-rule="nonzero"/></g><path fill="#ffffff" d="M 139.710938 202.179688 L 232.144531 202.179688 C 232.597656 202.179688 233.03125 202.265625 233.449219 202.433594 C 233.863281 202.605469 234.234375 202.851562 234.550781 203.167969 C 234.871094 203.484375 235.117188 203.851562 235.289062 204.265625 C 235.460938 204.679688 235.550781 205.113281 235.550781 205.5625 L 235.550781 227.742188 C 235.550781 228.191406 235.460938 228.621094 235.289062 229.039062 C 235.117188 229.453125 234.871094 229.816406 234.550781 230.136719 C 234.234375 230.453125 233.863281 230.695312 233.449219 230.867188 C 233.03125 231.039062 232.597656 231.125 232.144531 231.125 L 139.710938 231.125 C 139.261719 231.125 138.824219 231.039062 138.410156 230.867188 C 137.992188 230.695312 137.625 230.453125 137.304688 230.136719 C 136.984375 229.816406 136.738281 229.453125 136.566406 229.039062 C 136.394531 228.621094 136.308594 228.191406 136.308594 227.742188 L 136.308594 205.5625 C 136.308594 205.113281 136.394531 204.679688 136.566406 204.265625 C 136.738281 203.851562 136.984375 203.484375 137.304688 203.167969 C 137.625 202.851562 137.992188 202.605469 138.410156 202.433594 C 138.824219 202.265625 139.261719 202.179688 139.710938 202.179688 Z M 139.710938 202.179688 " fill-opacity="1" fill-rule="nonzero"/><g clip-path="url(#df29b1ef53)"><path fill="#000000" d="M 216.808594 202.800781 L 213.175781 202.800781 C 212.828125 202.800781 212.550781 202.523438 212.550781 202.179688 C 212.550781 201.832031 212.828125 201.554688 213.175781 201.554688 L 216.808594 201.554688 C 217.15625 201.554688 217.4375 201.832031 217.4375 202.179688 C 217.4375 202.523438 217.15625 202.800781 216.808594 202.800781 Z M 216.808594 202.800781 " fill-opacity="1" fill-rule="nonzero"/></g><g clip-path="url(#ea03112cd9)"><path fill="#000000" d="M 136.308594 217.277344 C 135.960938 217.277344 135.679688 216.996094 135.679688 216.652344 L 135.679688 205.5625 C 135.679688 204.488281 136.097656 203.484375 136.859375 202.726562 C 137.621094 201.96875 138.636719 201.554688 139.710938 201.554688 L 209.550781 201.554688 C 209.898438 201.554688 210.179688 201.832031 210.179688 202.179688 C 210.179688 202.523438 209.898438 202.800781 209.550781 202.800781 L 139.710938 202.800781 C 138.96875 202.800781 138.273438 203.089844 137.746094 203.609375 C 137.222656 204.132812 136.933594 204.824219 136.933594 205.5625 L 136.933594 216.652344 C 136.933594 216.996094 136.65625 217.277344 136.308594 217.277344 Z M 136.308594 217.277344 " fill-opacity="1" fill-rule="nonzero"/></g><g clip-path="url(#923471c765)"><path fill="#000000" d="M 153.265625 231.75 L 139.710938 231.75 C 138.632812 231.75 137.621094 231.335938 136.859375 230.578125 C 136.097656 229.820312 135.679688 228.8125 135.679688 227.742188 L 135.679688 220.9375 C 135.679688 220.59375 135.960938 220.3125 136.308594 220.3125 C 136.65625 220.3125 136.933594 220.59375 136.933594 220.9375 L 136.933594 227.742188 C 136.933594 228.480469 137.222656 229.171875 137.746094 229.695312 C 138.273438 230.214844 138.96875 230.5 139.710938 230.5 L 153.265625 230.5 C 153.613281 230.5 153.894531 230.78125 153.894531 231.125 C 153.894531 231.472656 153.613281 231.75 153.265625 231.75 Z M 153.265625 231.75 " fill-opacity="1" fill-rule="nonzero"/></g><g clip-path="url(#4798110cf1)"><path fill="#000000" d="M 232.144531 231.75 L 157.367188 231.75 C 157.019531 231.75 156.738281 231.472656 156.738281 231.125 C 156.738281 230.78125 157.019531 230.5 157.367188 230.5 L 232.148438 230.5 C 232.886719 230.5 233.585938 230.214844 234.109375 229.695312 C 234.632812 229.175781 234.921875 228.480469 234.921875 227.742188 L 234.921875 205.5625 C 234.921875 204.824219 234.632812 204.132812 234.109375 203.609375 C 233.585938 203.085938 232.886719 202.800781 232.148438 202.800781 L 220.6875 202.800781 C 220.339844 202.800781 220.058594 202.519531 220.058594 202.175781 C 220.058594 201.832031 220.339844 201.550781 220.6875 201.550781 L 232.148438 201.550781 C 233.226562 201.550781 234.234375 201.96875 235 202.726562 C 235.761719 203.484375 236.179688 204.488281 236.179688 205.558594 L 236.179688 227.738281 C 236.179688 228.808594 235.761719 229.816406 235 230.574219 C 234.234375 231.328125 233.222656 231.746094 232.148438 231.746094 Z M 232.144531 231.75 " fill-opacity="1" fill-rule="nonzero"/></g><g clip-path="url(#85aa348a4d)"><g clip-path="url(#5a085a23eb)"><g clip-path="url(#32910b52f6)"><path fill="#000000" d="M 158.472656 146.21875 C 158.5625 146.246094 158.570312 146.265625 158.640625 146.523438 C 158.679688 146.671875 158.71875 146.882812 158.730469 146.988281 C 158.742188 147.128906 158.734375 147.238281 158.6875 147.421875 C 158.652344 147.566406 158.589844 147.734375 158.535156 147.839844 C 158.480469 147.9375 158.375 148.105469 158.292969 148.214844 C 158.214844 148.320312 158.082031 148.480469 157.992188 148.570312 C 157.90625 148.660156 157.765625 148.78125 157.539062 148.949219 L 157.59375 149.019531 C 157.621094 149.058594 157.648438 149.140625 157.648438 149.203125 C 157.652344 149.265625 157.550781 149.765625 157.191406 151.355469 L 157.894531 151.507812 C 158.28125 151.597656 158.601562 151.664062 158.605469 151.664062 C 158.609375 151.664062 158.699219 151.375 158.808594 151.023438 C 158.917969 150.671875 159.082031 150.144531 159.175781 149.851562 C 159.273438 149.5625 159.363281 149.292969 159.378906 149.25 C 159.398438 149.210938 159.441406 149.167969 159.550781 149.128906 L 159.511719 148.941406 C 159.492188 148.835938 159.480469 148.675781 159.488281 148.582031 C 159.492188 148.464844 159.515625 148.367188 159.566406 148.257812 C 159.605469 148.164062 159.769531 147.925781 160.003906 147.632812 C 160.210938 147.378906 160.414062 147.105469 160.464844 147.03125 C 160.515625 146.945312 160.574219 146.890625 160.617188 146.882812 C 160.667969 146.871094 160.699219 146.878906 160.738281 146.910156 C 160.78125 146.945312 160.804688 147.050781 160.839844 147.347656 C 160.863281 147.566406 160.882812 147.8125 160.886719 147.902344 C 160.886719 147.988281 160.867188 148.15625 160.839844 148.277344 C 160.808594 148.394531 160.75 148.558594 160.703125 148.644531 C 160.660156 148.726562 160.570312 148.859375 160.503906 148.9375 C 160.4375 149.019531 160.324219 149.128906 160.105469 149.289062 L 160.140625 149.402344 C 160.175781 149.515625 160.175781 149.535156 160 150.25 C 159.902344 150.648438 159.753906 151.183594 159.527344 151.886719 L 160.160156 152.066406 C 160.507812 152.171875 160.980469 152.316406 161.207031 152.394531 C 161.433594 152.472656 161.796875 152.601562 162.015625 152.6875 C 162.234375 152.773438 162.574219 152.917969 162.777344 153.011719 C 162.976562 153.101562 163.242188 153.238281 163.367188 153.308594 C 163.492188 153.378906 163.675781 153.488281 163.769531 153.550781 C 163.867188 153.617188 164.042969 153.75 164.160156 153.851562 C 164.277344 153.949219 164.429688 154.109375 164.488281 154.203125 C 164.554688 154.296875 164.625 154.4375 164.648438 154.511719 C 164.683594 154.628906 164.683594 154.679688 164.640625 154.839844 C 164.613281 154.941406 164.578125 155.078125 164.558594 155.136719 C 164.539062 155.191406 164.496094 155.464844 164.464844 155.742188 C 164.433594 156.019531 164.371094 156.492188 164.332031 156.796875 C 164.289062 157.101562 164.230469 157.535156 164.195312 157.765625 C 164.160156 157.992188 164.09375 158.34375 164.046875 158.542969 C 163.976562 158.828125 163.9375 158.945312 163.863281 159.074219 C 163.769531 159.226562 163.761719 159.265625 163.664062 159.824219 C 163.601562 160.148438 163.507812 160.722656 163.445312 161.101562 C 163.386719 161.480469 163.296875 162.015625 163.25 162.285156 C 163.199219 162.558594 163.109375 162.992188 163.046875 163.253906 C 162.980469 163.511719 162.898438 163.808594 162.863281 163.910156 C 162.816406 164.039062 162.769531 164.117188 162.707031 164.167969 C 162.652344 164.214844 162.542969 164.257812 162.394531 164.289062 C 162.269531 164.316406 161.929688 164.375 161.640625 164.425781 C 161.351562 164.472656 160.824219 164.554688 160.472656 164.605469 C 160.117188 164.65625 159.648438 164.714844 159.429688 164.738281 C 159.210938 164.765625 158.855469 164.792969 158.648438 164.808594 C 158.4375 164.820312 158.058594 164.835938 157.804688 164.835938 C 157.550781 164.839844 157.121094 164.835938 156.855469 164.824219 C 156.585938 164.8125 156.152344 164.785156 155.886719 164.765625 C 155.621094 164.742188 155.25 164.703125 155.058594 164.679688 C 154.863281 164.65625 154.492188 164.609375 154.234375 164.570312 C 153.972656 164.53125 153.480469 164.449219 153.136719 164.386719 C 152.742188 164.3125 152.007812 164.144531 151.113281 163.921875 C 150.226562 163.703125 149.5 163.507812 149.132812 163.390625 C 148.820312 163.292969 148.324219 163.128906 148.039062 163.027344 C 147.753906 162.929688 147.355469 162.78125 147.152344 162.699219 C 146.949219 162.621094 146.59375 162.472656 146.363281 162.371094 C 146.136719 162.269531 145.785156 162.101562 145.589844 162 C 145.390625 161.894531 144.976562 161.65625 144.664062 161.46875 C 144.265625 161.226562 144.078125 161.097656 144.035156 161.035156 C 144.003906 160.984375 143.976562 160.886719 143.972656 160.796875 C 143.96875 160.714844 144.003906 160.324219 144.050781 159.9375 C 144.097656 159.546875 144.183594 158.882812 144.242188 158.46875 C 144.304688 158.050781 144.375 157.527344 144.402344 157.304688 C 144.429688 157.082031 144.472656 156.859375 144.492188 156.8125 C 144.523438 156.738281 144.515625 156.683594 144.472656 156.546875 C 144.441406 156.457031 144.402344 156.296875 144.382812 156.199219 C 144.367188 156.101562 144.34375 155.917969 144.335938 155.792969 C 144.324219 155.671875 144.324219 155.417969 144.335938 155.234375 C 144.347656 154.945312 144.371094 154.8125 144.519531 154.1875 C 144.65625 153.625 144.71875 153.410156 144.808594 153.199219 C 144.871094 153.046875 144.992188 152.796875 145.074219 152.644531 C 145.15625 152.492188 145.28125 152.285156 145.347656 152.1875 C 145.417969 152.085938 145.515625 151.976562 145.570312 151.941406 C 145.632812 151.898438 145.675781 151.839844 145.6875 151.792969 C 145.699219 151.746094 145.761719 151.648438 145.832031 151.570312 C 145.902344 151.496094 146.035156 151.386719 146.132812 151.328125 C 146.226562 151.269531 146.410156 151.183594 146.539062 151.132812 C 146.667969 151.082031 146.917969 151.003906 147.097656 150.960938 C 147.273438 150.914062 147.601562 150.851562 147.824219 150.820312 C 148.042969 150.785156 148.414062 150.742188 148.640625 150.722656 C 148.867188 150.703125 149.210938 150.679688 149.402344 150.671875 C 149.59375 150.664062 149.964844 150.660156 150.226562 150.65625 C 150.492188 150.65625 150.734375 150.65625 150.832031 150.65625 L 151.097656 149.480469 C 151.242188 148.835938 151.390625 148.222656 151.429688 148.125 C 151.480469 147.984375 151.511719 147.929688 151.640625 147.859375 L 151.617188 147.726562 C 151.601562 147.644531 151.605469 147.507812 151.628906 147.386719 C 151.648438 147.257812 151.695312 147.117188 151.746094 147.015625 C 151.789062 146.921875 151.953125 146.640625 152.105469 146.382812 C 152.257812 146.128906 152.40625 145.90625 152.4375 145.882812 C 152.46875 145.863281 152.527344 145.851562 152.566406 145.867188 C 152.625 145.878906 152.664062 145.925781 152.726562 146.039062 C 152.769531 146.125 152.832031 146.277344 152.863281 146.378906 C 152.894531 146.480469 152.925781 146.636719 152.933594 146.726562 C 152.945312 146.8125 152.941406 146.960938 152.929688 147.050781 C 152.914062 147.160156 152.875 147.277344 152.820312 147.390625 C 152.769531 147.484375 152.683594 147.621094 152.625 147.6875 C 152.570312 147.753906 152.457031 147.867188 152.382812 147.929688 C 152.257812 148.03125 152.246094 148.046875 152.292969 148.058594 C 152.324219 148.066406 152.367188 148.109375 152.386719 148.15625 C 152.414062 148.230469 152.410156 148.304688 152.359375 148.574219 C 152.320312 148.753906 152.230469 149.191406 152.15625 149.542969 C 152.078125 149.890625 151.988281 150.296875 151.894531 150.695312 L 152.441406 150.734375 C 152.738281 150.753906 153.132812 150.785156 153.316406 150.800781 C 153.628906 150.824219 153.648438 150.824219 153.675781 150.761719 C 153.691406 150.722656 153.816406 150.246094 153.949219 149.695312 C 154.085938 149.144531 154.226562 148.605469 154.265625 148.5 C 154.316406 148.355469 154.355469 148.292969 154.398438 148.273438 C 154.457031 148.246094 154.457031 148.242188 154.417969 148.136719 C 154.394531 148.074219 154.375 147.980469 154.375 147.925781 C 154.371094 147.871094 154.386719 147.75 154.410156 147.660156 C 154.433594 147.5625 154.488281 147.433594 154.558594 147.324219 C 154.621094 147.226562 154.75 147.042969 154.847656 146.90625 C 154.945312 146.773438 155.050781 146.617188 155.078125 146.5625 C 155.109375 146.507812 155.152344 146.449219 155.175781 146.433594 C 155.199219 146.417969 155.257812 146.417969 155.300781 146.429688 C 155.378906 146.449219 155.402344 146.476562 155.460938 146.617188 C 155.503906 146.710938 155.554688 146.863281 155.582031 146.953125 C 155.609375 147.046875 155.632812 147.199219 155.640625 147.296875 C 155.640625 147.417969 155.625 147.53125 155.585938 147.667969 C 155.542969 147.8125 155.488281 147.914062 155.402344 148.027344 C 155.332031 148.113281 155.226562 148.222656 155.164062 148.277344 C 155.054688 148.363281 155.050781 148.375 155.085938 148.417969 C 155.105469 148.449219 155.128906 148.542969 155.132812 148.636719 C 155.140625 148.734375 155.128906 148.925781 155.113281 149.070312 C 155.097656 149.21875 154.996094 149.699219 154.703125 150.953125 L 154.882812 150.980469 C 154.984375 150.996094 155.304688 151.042969 155.59375 151.085938 C 155.882812 151.128906 156.140625 151.167969 156.15625 151.160156 C 156.183594 151.160156 156.210938 151.09375 156.246094 150.949219 C 156.273438 150.835938 156.386719 150.449219 156.496094 150.085938 C 156.605469 149.726562 156.738281 149.316406 156.792969 149.171875 C 156.84375 149.027344 156.90625 148.886719 156.929688 148.859375 C 156.949219 148.835938 156.980469 148.808594 156.996094 148.804688 C 157.011719 148.800781 157.007812 148.730469 156.992188 148.648438 C 156.972656 148.5625 156.953125 148.421875 156.949219 148.335938 C 156.945312 148.25 156.949219 148.113281 156.957031 148.039062 C 156.964844 147.960938 157 147.835938 157.035156 147.757812 C 157.070312 147.679688 157.140625 147.554688 157.191406 147.480469 C 157.242188 147.40625 157.457031 147.164062 157.667969 146.949219 C 157.882812 146.730469 158.113281 146.488281 158.179688 146.398438 C 158.25 146.3125 158.320312 146.230469 158.34375 146.214844 C 158.363281 146.199219 158.417969 146.199219 158.472656 146.21875 Z M 157.980469 147.066406 C 157.808594 147.238281 157.601562 147.464844 157.515625 147.570312 C 157.429688 147.675781 157.332031 147.820312 157.308594 147.894531 C 157.28125 147.964844 157.253906 148.101562 157.25 148.195312 C 157.25 148.289062 157.261719 148.441406 157.28125 148.539062 C 157.300781 148.632812 157.320312 148.714844 157.328125 148.714844 C 157.335938 148.71875 157.421875 148.65625 157.519531 148.582031 C 157.617188 148.503906 157.78125 148.347656 157.882812 148.230469 C 157.988281 148.113281 158.121094 147.933594 158.183594 147.832031 C 158.25 147.726562 158.328125 147.574219 158.359375 147.484375 C 158.394531 147.386719 158.417969 147.261719 158.421875 147.15625 C 158.425781 147.0625 158.414062 146.914062 158.398438 146.828125 C 158.382812 146.746094 158.363281 146.671875 158.355469 146.671875 C 158.347656 146.667969 158.332031 146.6875 158.316406 146.710938 C 158.304688 146.734375 158.152344 146.894531 157.980469 147.066406 Z M 159.902344 148.265625 C 159.863281 148.328125 159.820312 148.429688 159.804688 148.492188 C 159.789062 148.558594 159.789062 148.699219 159.800781 148.804688 C 159.816406 148.917969 159.832031 149.023438 159.847656 149.039062 C 159.859375 149.0625 159.890625 149.058594 159.9375 149.035156 C 159.976562 149.011719 160.078125 148.933594 160.15625 148.855469 C 160.234375 148.78125 160.34375 148.648438 160.398438 148.558594 C 160.453125 148.464844 160.515625 148.316406 160.539062 148.21875 C 160.570312 148.117188 160.582031 147.949219 160.578125 147.8125 C 160.574219 147.6875 160.558594 147.558594 160.546875 147.527344 C 160.53125 147.480469 160.488281 147.515625 160.25 147.816406 C 160.097656 148.003906 159.945312 148.207031 159.902344 148.265625 Z M 154.738281 147.625 C 154.699219 147.707031 154.675781 147.789062 154.675781 147.855469 C 154.679688 147.910156 154.695312 148 154.71875 148.0625 C 154.742188 148.121094 154.769531 148.175781 154.785156 148.183594 C 154.800781 148.191406 154.882812 148.128906 154.96875 148.042969 C 155.054688 147.957031 155.160156 147.839844 155.199219 147.777344 C 155.238281 147.714844 155.289062 147.59375 155.308594 147.503906 C 155.339844 147.375 155.339844 147.296875 155.300781 147.121094 C 155.273438 147.003906 155.246094 146.902344 155.242188 146.902344 C 155.234375 146.898438 155.132812 147.03125 155.015625 147.195312 C 154.898438 147.363281 154.769531 147.554688 154.734375 147.625 Z M 152.328125 146.609375 C 152.25 146.738281 152.136719 146.933594 152.078125 147.035156 C 152.019531 147.140625 151.957031 147.296875 151.933594 147.386719 C 151.90625 147.5 151.90625 147.597656 151.929688 147.714844 L 151.960938 147.878906 C 152.148438 147.722656 152.246094 147.636719 152.300781 147.582031 C 152.355469 147.527344 152.445312 147.414062 152.5 147.328125 C 152.578125 147.207031 152.605469 147.136719 152.625 146.992188 C 152.640625 146.878906 152.632812 146.746094 152.609375 146.632812 C 152.585938 146.535156 152.558594 146.421875 152.542969 146.390625 C 152.527344 146.355469 152.507812 146.335938 152.496094 146.347656 C 152.484375 146.359375 152.410156 146.480469 152.328125 146.609375 Z M 159.371094 150.242188 C 159.277344 150.535156 159.070312 151.210938 158.910156 151.75 C 158.75 152.285156 158.554688 152.941406 158.480469 153.210938 L 158.339844 153.699219 C 158.605469 153.761719 158.65625 153.761719 158.664062 153.738281 C 158.667969 153.722656 158.757812 153.394531 158.867188 153.011719 C 158.976562 152.628906 159.082031 152.296875 159.097656 152.277344 C 159.117188 152.261719 159.191406 152.019531 159.265625 151.746094 C 159.339844 151.472656 159.453125 151.09375 159.515625 150.90625 C 159.574219 150.714844 159.679688 150.335938 159.746094 150.058594 L 159.867188 149.558594 C 159.738281 149.496094 159.683594 149.472656 159.667969 149.46875 C 159.648438 149.464844 159.613281 149.515625 159.589844 149.585938 C 159.5625 149.65625 159.464844 149.949219 159.371094 150.242188 Z M 156.664062 150.554688 C 156.558594 150.898438 156.398438 151.441406 156.308594 151.757812 C 156.222656 152.074219 156.082031 152.585938 155.992188 152.890625 L 155.832031 153.445312 L 156.214844 153.539062 C 156.296875 153.324219 156.386719 153.050781 156.464844 152.796875 C 156.542969 152.539062 156.660156 152.15625 156.726562 151.945312 C 156.789062 151.730469 156.9375 151.140625 157.054688 150.632812 C 157.167969 150.128906 157.28125 149.601562 157.308594 149.464844 C 157.347656 149.242188 157.34375 149.214844 157.292969 149.183594 C 157.265625 149.167969 157.210938 149.144531 157.183594 149.136719 C 157.128906 149.121094 157.117188 149.140625 156.992188 149.523438 C 156.917969 149.746094 156.773438 150.214844 156.664062 150.554688 Z M 154.53125 148.65625 C 154.511719 148.703125 154.273438 149.632812 154 150.726562 L 153.5 152.710938 C 153.582031 152.78125 153.65625 152.8125 153.714844 152.828125 C 153.824219 152.855469 153.824219 152.855469 153.851562 152.75 C 153.863281 152.699219 153.953125 152.414062 154.042969 152.121094 C 154.136719 151.828125 154.320312 151.183594 154.449219 150.6875 C 154.597656 150.121094 154.710938 149.625 154.753906 149.359375 C 154.792969 149.125 154.824219 148.859375 154.828125 148.765625 C 154.832031 148.609375 154.828125 148.605469 154.746094 148.589844 C 154.699219 148.578125 154.640625 148.570312 154.617188 148.574219 C 154.589844 148.574219 154.550781 148.609375 154.53125 148.65625 Z M 151.367188 149.675781 C 151.179688 150.484375 151.011719 151.269531 150.992188 151.421875 C 150.972656 151.578125 150.941406 151.824219 150.921875 151.976562 C 150.898438 152.128906 150.882812 152.257812 150.890625 152.261719 C 150.894531 152.265625 150.96875 152.296875 151.0625 152.332031 L 151.234375 152.394531 C 151.378906 151.65625 151.484375 151.144531 151.566406 150.789062 C 151.644531 150.429688 151.785156 149.789062 151.878906 149.363281 C 151.972656 148.933594 152.058594 148.519531 152.070312 148.441406 L 152.09375 148.296875 L 151.703125 148.203125 Z M 157.121094 151.660156 C 157.117188 151.660156 157.0625 151.839844 157.003906 152.058594 C 156.941406 152.273438 156.800781 152.753906 156.683594 153.117188 C 156.488281 153.738281 156.46875 153.785156 156.398438 153.828125 C 156.332031 153.875 156.304688 153.871094 155.96875 153.789062 C 155.625 153.707031 155.609375 153.703125 155.5625 153.621094 C 155.511719 153.542969 155.511719 153.523438 155.582031 153.234375 C 155.621094 153.066406 155.722656 152.703125 155.804688 152.421875 C 155.886719 152.144531 155.984375 151.8125 156.027344 151.6875 L 156.097656 151.460938 C 155.71875 151.40625 155.386719 151.359375 155.117188 151.320312 L 154.628906 151.25 C 154.460938 151.8125 154.347656 152.179688 154.269531 152.429688 C 154.195312 152.679688 154.105469 152.945312 154.070312 153.019531 C 154.03125 153.117188 153.992188 153.164062 153.945312 153.179688 C 153.882812 153.199219 153.828125 153.1875 153.589844 153.101562 C 153.351562 153.015625 153.292969 152.988281 153.253906 152.921875 C 153.226562 152.878906 153.210938 152.792969 153.21875 152.714844 C 153.226562 152.644531 153.308594 152.257812 153.402344 151.859375 L 153.574219 151.132812 C 153.367188 151.113281 153.070312 151.089844 152.78125 151.0625 C 152.496094 151.039062 152.171875 151.015625 152.058594 151.007812 C 151.953125 151 151.851562 151 151.839844 151.003906 C 151.824219 151.011719 151.753906 151.324219 151.679688 151.699219 C 151.605469 152.074219 151.539062 152.429688 151.535156 152.492188 C 151.527344 152.578125 151.507812 152.617188 151.457031 152.65625 C 151.40625 152.699219 151.355469 152.703125 151.226562 152.683594 C 151.132812 152.667969 150.96875 152.621094 150.863281 152.574219 C 150.738281 152.523438 150.648438 152.464844 150.617188 152.421875 C 150.585938 152.371094 150.574219 152.300781 150.582031 152.179688 C 150.589844 152.089844 150.621094 151.847656 150.65625 151.640625 C 150.6875 151.4375 150.730469 151.199219 150.75 151.113281 C 150.785156 150.980469 150.78125 150.957031 150.738281 150.960938 C 150.710938 150.957031 150.441406 150.960938 150.136719 150.964844 C 149.839844 150.964844 149.378906 150.976562 149.121094 150.988281 C 148.863281 151.007812 148.464844 151.039062 148.238281 151.070312 C 148.007812 151.09375 147.644531 151.152344 147.425781 151.199219 C 147.210938 151.246094 146.925781 151.320312 146.796875 151.367188 C 146.667969 151.414062 146.496094 151.480469 146.417969 151.515625 C 146.339844 151.554688 146.21875 151.632812 146.152344 151.683594 C 146.082031 151.738281 146.007812 151.832031 145.976562 151.886719 C 145.933594 151.964844 145.925781 152.015625 145.9375 152.105469 C 145.945312 152.171875 146 152.292969 146.058594 152.378906 C 146.113281 152.460938 146.246094 152.605469 146.351562 152.695312 C 146.453125 152.785156 146.640625 152.925781 146.765625 153.003906 C 146.890625 153.082031 147.144531 153.226562 147.335938 153.324219 C 147.527344 153.421875 147.871094 153.582031 148.101562 153.675781 C 148.332031 153.769531 148.683594 153.90625 148.882812 153.976562 C 149.078125 154.046875 149.410156 154.160156 149.617188 154.222656 C 149.820312 154.289062 150.347656 154.441406 150.777344 154.558594 C 151.265625 154.691406 151.921875 154.847656 152.507812 154.96875 C 153.03125 155.078125 153.652344 155.199219 153.886719 155.238281 C 154.125 155.277344 154.546875 155.347656 154.832031 155.394531 C 155.113281 155.4375 155.625 155.503906 155.960938 155.546875 C 156.300781 155.585938 156.796875 155.640625 157.058594 155.664062 C 157.324219 155.6875 157.691406 155.71875 157.878906 155.730469 C 158.066406 155.746094 158.394531 155.761719 158.605469 155.773438 C 158.816406 155.78125 159.25 155.796875 159.566406 155.800781 C 159.882812 155.808594 160.375 155.804688 160.664062 155.796875 C 160.953125 155.785156 161.425781 155.757812 161.71875 155.730469 C 162.011719 155.703125 162.40625 155.652344 162.59375 155.621094 C 162.785156 155.589844 163.046875 155.535156 163.171875 155.5 C 163.300781 155.464844 163.503906 155.398438 163.625 155.355469 C 163.75 155.308594 163.929688 155.21875 164.027344 155.152344 C 164.128906 155.089844 164.234375 155 164.269531 154.949219 C 164.304688 154.902344 164.34375 154.828125 164.355469 154.777344 C 164.367188 154.730469 164.355469 154.628906 164.328125 154.550781 C 164.300781 154.457031 164.222656 154.347656 164.113281 154.226562 C 164.019531 154.125 163.824219 153.960938 163.679688 153.859375 C 163.539062 153.761719 163.261719 153.59375 163.0625 153.492188 C 162.867188 153.390625 162.539062 153.234375 162.335938 153.144531 C 162.136719 153.0625 161.828125 152.9375 161.652344 152.871094 C 161.480469 152.804688 161.125 152.683594 160.867188 152.597656 C 160.609375 152.515625 160.1875 152.386719 159.925781 152.3125 C 159.53125 152.203125 159.449219 152.183594 159.429688 152.214844 C 159.410156 152.234375 159.289062 152.640625 159.152344 153.117188 C 158.941406 153.855469 158.898438 153.996094 158.839844 154.050781 C 158.773438 154.113281 158.773438 154.113281 158.507812 154.046875 C 158.363281 154.011719 158.210938 153.964844 158.167969 153.945312 C 158.125 153.925781 158.074219 153.871094 158.054688 153.820312 C 158.015625 153.730469 158.015625 153.730469 158.253906 152.882812 C 158.390625 152.417969 158.507812 152.015625 158.519531 151.988281 C 158.542969 151.949219 158.519531 151.941406 158.316406 151.898438 C 158.191406 151.871094 157.875 151.804688 157.609375 151.753906 C 157.34375 151.699219 157.125 151.65625 157.121094 151.660156 Z M 163.757812 155.636719 C 163.65625 155.679688 163.382812 155.757812 163.15625 155.8125 C 162.929688 155.867188 162.554688 155.941406 162.324219 155.972656 C 162.09375 156 161.71875 156.039062 161.480469 156.058594 C 161.246094 156.074219 160.867188 156.097656 160.632812 156.101562 C 160.402344 156.109375 160.039062 156.113281 159.824219 156.109375 C 159.613281 156.109375 159.253906 156.101562 159.035156 156.09375 C 158.816406 156.089844 158.417969 156.066406 158.152344 156.054688 C 157.886719 156.035156 157.40625 156 157.089844 155.972656 C 156.769531 155.941406 156.226562 155.882812 155.878906 155.839844 C 155.53125 155.796875 155.011719 155.726562 154.71875 155.679688 C 154.429688 155.636719 154.011719 155.570312 153.789062 155.535156 C 153.566406 155.496094 152.769531 155.328125 152.019531 155.15625 C 151.113281 154.953125 150.453125 154.792969 150.070312 154.679688 C 149.753906 154.585938 149.3125 154.445312 149.089844 154.371094 C 148.871094 154.296875 148.515625 154.164062 148.296875 154.082031 C 148.078125 153.996094 147.757812 153.863281 147.585938 153.785156 C 147.417969 153.703125 147.144531 153.566406 146.980469 153.480469 C 146.820312 153.394531 146.578125 153.246094 146.441406 153.152344 C 146.304688 153.054688 146.125 152.914062 146.035156 152.828125 C 145.949219 152.746094 145.824219 152.597656 145.761719 152.492188 C 145.699219 152.390625 145.640625 152.3125 145.636719 152.3125 C 145.628906 152.316406 145.570312 152.402344 145.503906 152.503906 C 145.441406 152.609375 145.324219 152.824219 145.246094 152.984375 C 145.167969 153.148438 145.054688 153.40625 145 153.554688 C 144.9375 153.734375 144.855469 154.050781 144.773438 154.429688 C 144.667969 154.929688 144.644531 155.089844 144.636719 155.371094 C 144.632812 155.558594 144.640625 155.804688 144.65625 155.917969 C 144.667969 156.03125 144.703125 156.222656 144.734375 156.335938 C 144.765625 156.453125 144.824219 156.613281 144.871094 156.695312 C 144.914062 156.773438 144.992188 156.875 145.042969 156.914062 C 145.097656 156.960938 145.191406 157.003906 145.28125 157.023438 C 145.367188 157.046875 145.503906 157.050781 145.601562 157.039062 C 145.695312 157.027344 146 156.933594 146.28125 156.828125 C 146.613281 156.707031 146.851562 156.640625 146.976562 156.628906 C 147.117188 156.613281 147.210938 156.625 147.316406 156.660156 C 147.410156 156.691406 147.511719 156.75 147.59375 156.820312 C 147.664062 156.882812 147.769531 157.023438 147.832031 157.128906 C 147.902344 157.265625 147.964844 157.441406 148.015625 157.660156 C 148.054688 157.84375 148.105469 158.183594 148.128906 158.417969 C 148.152344 158.652344 148.1875 158.914062 148.203125 159.003906 C 148.21875 159.097656 148.269531 159.277344 148.316406 159.402344 C 148.359375 159.535156 148.433594 159.691406 148.476562 159.753906 C 148.519531 159.816406 148.605469 159.910156 148.667969 159.960938 C 148.730469 160.015625 148.808594 160.066406 148.84375 160.074219 C 148.875 160.082031 148.953125 160.074219 149.011719 160.050781 C 149.078125 160.027344 149.175781 159.949219 149.269531 159.84375 C 149.367188 159.734375 149.523438 159.492188 149.746094 159.101562 C 149.925781 158.785156 150.117188 158.453125 150.171875 158.371094 C 150.222656 158.292969 150.332031 158.152344 150.410156 158.0625 C 150.488281 157.96875 150.640625 157.839844 150.742188 157.777344 C 150.851562 157.707031 150.996094 157.644531 151.09375 157.625 C 151.1875 157.605469 151.34375 157.59375 151.445312 157.601562 C 151.601562 157.609375 151.660156 157.625 151.8125 157.703125 C 151.914062 157.75 152.050781 157.851562 152.117188 157.914062 C 152.1875 157.984375 152.308594 158.136719 152.382812 158.261719 C 152.460938 158.382812 152.542969 158.558594 152.574219 158.648438 C 152.601562 158.738281 152.640625 158.902344 152.660156 159.007812 C 152.671875 159.113281 152.6875 159.421875 152.695312 159.6875 C 152.695312 159.957031 152.707031 160.257812 152.71875 160.351562 C 152.726562 160.449219 152.757812 160.589844 152.78125 160.664062 C 152.804688 160.742188 152.863281 160.867188 152.910156 160.941406 C 152.957031 161.015625 153.039062 161.113281 153.09375 161.15625 C 153.164062 161.214844 153.242188 161.246094 153.390625 161.28125 C 153.566406 161.324219 153.625 161.324219 153.800781 161.289062 C 153.917969 161.261719 154.082031 161.199219 154.1875 161.136719 C 154.296875 161.074219 154.417969 160.972656 154.496094 160.875 C 154.566406 160.789062 154.660156 160.636719 154.710938 160.539062 C 154.753906 160.441406 154.859375 160.15625 154.933594 159.90625 C 155.011719 159.65625 155.105469 159.390625 155.148438 159.3125 C 155.191406 159.238281 155.265625 159.136719 155.316406 159.082031 C 155.363281 159.03125 155.484375 158.945312 155.578125 158.894531 C 155.667969 158.84375 155.832031 158.78125 155.9375 158.757812 C 156.042969 158.738281 156.222656 158.726562 156.339844 158.734375 C 156.503906 158.746094 156.59375 158.769531 156.734375 158.828125 C 156.835938 158.871094 156.988281 158.964844 157.074219 159.035156 C 157.160156 159.105469 157.292969 159.257812 157.367188 159.367188 C 157.441406 159.480469 157.535156 159.660156 157.578125 159.761719 C 157.621094 159.867188 157.714844 160.160156 157.789062 160.414062 C 157.859375 160.667969 157.945312 160.9375 157.976562 161.015625 C 158.007812 161.09375 158.074219 161.230469 158.128906 161.320312 C 158.1875 161.410156 158.273438 161.519531 158.324219 161.558594 C 158.371094 161.601562 158.460938 161.644531 158.523438 161.660156 C 158.597656 161.675781 158.660156 161.671875 158.722656 161.640625 C 158.773438 161.617188 158.867188 161.527344 158.933594 161.441406 C 159.023438 161.324219 159.070312 161.230469 159.121094 161.058594 C 159.167969 160.898438 159.195312 160.730469 159.210938 160.480469 C 159.222656 160.289062 159.238281 160.035156 159.242188 159.914062 C 159.25 159.800781 159.285156 159.582031 159.320312 159.433594 C 159.355469 159.269531 159.414062 159.101562 159.464844 159.007812 C 159.507812 158.925781 159.589844 158.804688 159.648438 158.738281 C 159.707031 158.675781 159.878906 158.546875 160.027344 158.457031 C 160.195312 158.355469 160.359375 158.277344 160.464844 158.253906 C 160.554688 158.234375 160.699219 158.21875 160.773438 158.222656 C 160.867188 158.230469 160.976562 158.253906 161.089844 158.300781 C 161.183594 158.335938 161.347656 158.4375 161.453125 158.523438 C 161.558594 158.605469 161.777344 158.800781 161.941406 158.953125 C 162.105469 159.105469 162.308594 159.269531 162.402344 159.324219 C 162.492188 159.378906 162.613281 159.433594 162.675781 159.445312 C 162.738281 159.460938 162.851562 159.457031 162.953125 159.433594 C 163.039062 159.410156 163.167969 159.351562 163.234375 159.304688 C 163.300781 159.257812 163.410156 159.152344 163.480469 159.0625 C 163.601562 158.917969 163.613281 158.890625 163.71875 158.492188 C 163.78125 158.265625 163.863281 157.890625 163.898438 157.664062 C 163.933594 157.4375 164.003906 156.945312 164.054688 156.570312 C 164.105469 156.199219 164.15625 155.792969 164.171875 155.667969 C 164.183594 155.546875 164.191406 155.445312 164.1875 155.441406 C 164.183594 155.4375 164.128906 155.460938 164.0625 155.496094 C 164 155.53125 163.859375 155.59375 163.757812 155.636719 Z M 160.5 158.5625 C 160.417969 158.589844 160.265625 158.660156 160.15625 158.726562 C 160.046875 158.792969 159.917969 158.90625 159.851562 158.988281 C 159.789062 159.066406 159.703125 159.210938 159.664062 159.308594 C 159.617188 159.425781 159.585938 159.554688 159.570312 159.703125 C 159.558594 159.820312 159.542969 160.082031 159.53125 160.277344 C 159.523438 160.476562 159.515625 160.644531 159.515625 160.652344 C 159.511719 160.660156 159.789062 160.664062 160.128906 160.65625 C 160.46875 160.648438 160.941406 160.632812 161.179688 160.617188 C 161.421875 160.609375 161.878906 160.574219 162.191406 160.550781 C 162.507812 160.523438 162.855469 160.484375 162.964844 160.460938 C 163.074219 160.4375 163.179688 160.425781 163.203125 160.429688 C 163.238281 160.4375 163.25 160.394531 163.304688 160.101562 C 163.335938 159.917969 163.375 159.71875 163.386719 159.65625 L 163.417969 159.550781 C 163.21875 159.667969 163.085938 159.71875 162.996094 159.738281 C 162.890625 159.761719 162.765625 159.765625 162.660156 159.75 C 162.554688 159.734375 162.433594 159.691406 162.328125 159.636719 C 162.234375 159.585938 162.078125 159.476562 161.980469 159.394531 C 161.882812 159.3125 161.679688 159.128906 161.53125 158.988281 C 161.382812 158.851562 161.207031 158.707031 161.144531 158.667969 C 161.082031 158.632812 160.984375 158.582031 160.925781 158.558594 C 160.867188 158.539062 160.78125 158.523438 160.734375 158.523438 C 160.6875 158.523438 160.582031 158.542969 160.5 158.566406 Z M 155.839844 159.101562 C 155.757812 159.132812 155.640625 159.207031 155.578125 159.265625 C 155.511719 159.324219 155.441406 159.414062 155.410156 159.460938 C 155.386719 159.511719 155.308594 159.730469 155.238281 159.949219 C 155.175781 160.171875 155.121094 160.351562 155.121094 160.355469 C 155.125 160.359375 155.410156 160.394531 155.757812 160.429688 C 156.109375 160.46875 156.640625 160.519531 156.945312 160.542969 C 157.246094 160.566406 157.5 160.585938 157.503906 160.582031 C 157.511719 160.578125 157.484375 160.476562 157.449219 160.347656 C 157.414062 160.222656 157.351562 160.03125 157.3125 159.929688 C 157.273438 159.828125 157.191406 159.660156 157.128906 159.5625 C 157.066406 159.460938 156.953125 159.335938 156.855469 159.257812 C 156.730469 159.15625 156.648438 159.117188 156.503906 159.074219 C 156.375 159.035156 156.265625 159.023438 156.152344 159.03125 C 156.0625 159.039062 155.921875 159.070312 155.839844 159.101562 Z M 151.152344 157.929688 C 151.085938 157.945312 150.96875 158 150.890625 158.050781 C 150.8125 158.097656 150.714844 158.175781 150.667969 158.21875 C 150.625 158.265625 150.539062 158.378906 150.472656 158.472656 C 150.40625 158.570312 150.265625 158.804688 150.15625 159 C 150.046875 159.195312 149.949219 159.371094 149.933594 159.398438 C 149.914062 159.4375 149.945312 159.449219 150.355469 159.546875 C 150.597656 159.605469 151.148438 159.722656 151.582031 159.804688 C 152.015625 159.890625 152.371094 159.960938 152.375 159.960938 C 152.382812 159.960938 152.386719 159.785156 152.386719 159.570312 C 152.382812 159.296875 152.367188 159.109375 152.320312 158.914062 C 152.273438 158.71875 152.214844 158.578125 152.117188 158.417969 C 152.042969 158.296875 151.925781 158.148438 151.847656 158.089844 C 151.773438 158.023438 151.660156 157.960938 151.582031 157.9375 C 151.511719 157.914062 151.410156 157.894531 151.363281 157.894531 C 151.316406 157.898438 151.21875 157.914062 151.152344 157.929688 Z M 146.75 156.980469 C 146.6875 157 146.5 157.070312 146.335938 157.136719 C 146.171875 157.203125 145.9375 157.277344 145.820312 157.304688 C 145.703125 157.332031 145.542969 157.355469 145.460938 157.355469 C 145.378906 157.355469 145.238281 157.332031 145.128906 157.300781 C 145.011719 157.261719 144.902344 157.207031 144.839844 157.152344 L 144.738281 157.066406 C 144.714844 157.273438 144.703125 157.363281 144.703125 157.394531 C 144.699219 157.445312 144.742188 157.488281 144.894531 157.589844 C 145 157.660156 145.191406 157.777344 145.316406 157.847656 C 145.441406 157.917969 145.699219 158.042969 145.882812 158.125 C 146.070312 158.210938 146.402344 158.34375 146.617188 158.429688 C 146.835938 158.511719 147.199219 158.644531 147.425781 158.722656 C 147.65625 158.796875 147.84375 158.859375 147.851562 158.855469 C 147.855469 158.855469 147.839844 158.65625 147.820312 158.414062 C 147.796875 158.175781 147.75 157.867188 147.722656 157.734375 C 147.695312 157.601562 147.632812 157.421875 147.589844 157.328125 C 147.542969 157.242188 147.472656 157.132812 147.4375 157.085938 C 147.390625 157.035156 147.316406 156.988281 147.230469 156.957031 C 147.148438 156.929688 147.050781 156.921875 146.976562 156.929688 C 146.910156 156.941406 146.808594 156.960938 146.75 156.980469 Z M 162.191406 160.855469 C 161.867188 160.878906 161.425781 160.910156 161.207031 160.925781 C 160.992188 160.9375 160.515625 160.953125 160.148438 160.957031 L 159.484375 160.964844 C 159.378906 161.269531 159.308594 161.417969 159.265625 161.492188 C 159.222656 161.570312 159.148438 161.671875 159.097656 161.726562 C 159.050781 161.78125 158.964844 161.84375 158.914062 161.878906 C 158.859375 161.910156 158.761719 161.949219 158.695312 161.964844 C 158.601562 161.988281 158.535156 161.984375 158.410156 161.945312 C 158.316406 161.914062 158.203125 161.855469 158.128906 161.796875 C 158.0625 161.746094 157.949219 161.601562 157.871094 161.480469 C 157.796875 161.359375 157.703125 161.175781 157.664062 161.074219 C 157.613281 160.929688 157.585938 160.894531 157.539062 160.894531 C 157.507812 160.894531 157.179688 160.867188 156.816406 160.839844 C 156.449219 160.804688 155.894531 160.75 155.574219 160.71875 C 155.257812 160.683594 155 160.65625 154.996094 160.65625 C 154.992188 160.664062 154.960938 160.722656 154.925781 160.789062 C 154.886719 160.859375 154.804688 160.988281 154.734375 161.074219 C 154.648438 161.179688 154.527344 161.277344 154.367188 161.378906 C 154.21875 161.46875 154.054688 161.539062 153.9375 161.566406 C 153.832031 161.589844 153.664062 161.613281 153.566406 161.617188 C 153.453125 161.617188 153.324219 161.597656 153.222656 161.566406 C 153.128906 161.539062 153.003906 161.472656 152.921875 161.40625 C 152.84375 161.34375 152.734375 161.222656 152.671875 161.136719 C 152.609375 161.046875 152.539062 160.902344 152.507812 160.816406 C 152.480469 160.730469 152.441406 160.574219 152.425781 160.464844 L 152.394531 160.273438 C 152.128906 160.222656 151.738281 160.144531 151.359375 160.074219 C 150.980469 159.996094 150.464844 159.886719 150.214844 159.828125 C 149.800781 159.730469 149.753906 159.722656 149.726562 159.761719 C 149.714844 159.789062 149.628906 159.890625 149.546875 159.996094 C 149.457031 160.105469 149.332031 160.226562 149.261719 160.269531 C 149.1875 160.3125 149.089844 160.359375 149.035156 160.371094 C 148.980469 160.386719 148.878906 160.382812 148.78125 160.359375 C 148.65625 160.328125 148.582031 160.289062 148.472656 160.203125 C 148.375 160.128906 148.28125 160.015625 148.191406 159.867188 C 148.117188 159.742188 148.03125 159.554688 148 159.441406 C 147.964844 159.335938 147.9375 159.238281 147.933594 159.226562 C 147.933594 159.214844 147.703125 159.132812 147.421875 159.039062 C 147.144531 158.945312 146.667969 158.773438 146.363281 158.652344 C 146.058594 158.53125 145.675781 158.371094 145.511719 158.289062 C 145.347656 158.210938 145.089844 158.070312 144.933594 157.976562 C 144.777344 157.882812 144.648438 157.8125 144.644531 157.816406 C 144.640625 157.824219 144.59375 158.15625 144.539062 158.550781 C 144.484375 158.945312 144.433594 159.296875 144.425781 159.324219 C 144.414062 159.367188 144.460938 159.40625 144.738281 159.5625 C 144.917969 159.660156 145.269531 159.851562 145.523438 159.984375 C 145.777344 160.113281 146.191406 160.3125 146.441406 160.429688 C 146.691406 160.542969 147.105469 160.71875 147.355469 160.820312 C 147.609375 160.917969 148 161.054688 148.222656 161.125 C 148.445312 161.191406 148.890625 161.320312 149.21875 161.410156 C 149.546875 161.5 150.21875 161.652344 150.710938 161.75 C 151.203125 161.847656 151.859375 161.972656 152.175781 162.023438 C 152.488281 162.074219 152.96875 162.152344 153.246094 162.191406 C 153.519531 162.234375 154 162.296875 154.308594 162.328125 C 154.617188 162.363281 155.019531 162.402344 155.195312 162.414062 C 155.375 162.425781 155.878906 162.441406 156.3125 162.453125 C 156.746094 162.464844 157.265625 162.46875 157.464844 162.46875 C 157.664062 162.464844 158.105469 162.457031 158.449219 162.445312 C 158.792969 162.433594 159.261719 162.410156 159.488281 162.390625 C 159.714844 162.367188 160.398438 162.289062 161 162.207031 C 161.609375 162.128906 162.308594 162.042969 162.554688 162.015625 C 162.984375 161.972656 163.003906 161.964844 163.007812 161.898438 C 163.011719 161.859375 163.050781 161.625 163.089844 161.375 C 163.132812 161.125 163.175781 160.882812 163.183594 160.832031 C 163.191406 160.78125 163.183594 160.742188 163.167969 160.738281 C 163.15625 160.738281 163.0625 160.75 162.960938 160.769531 C 162.863281 160.789062 162.515625 160.828125 162.191406 160.855469 Z M 162.320312 162.347656 C 162 162.386719 161.296875 162.472656 160.761719 162.542969 C 160.230469 162.613281 159.609375 162.6875 159.382812 162.703125 C 159.15625 162.722656 158.703125 162.742188 158.375 162.75 C 158.046875 162.761719 157.539062 162.769531 157.246094 162.769531 C 156.953125 162.769531 156.367188 162.761719 155.949219 162.75 C 155.519531 162.734375 154.855469 162.691406 154.441406 162.648438 C 154.035156 162.605469 153.300781 162.507812 152.8125 162.429688 C 152.324219 162.355469 151.648438 162.242188 151.316406 162.179688 C 150.980469 162.117188 150.246094 161.957031 149.683594 161.824219 C 149.121094 161.695312 148.457031 161.519531 148.203125 161.441406 C 147.953125 161.363281 147.539062 161.214844 147.285156 161.117188 C 147.03125 161.015625 146.640625 160.855469 146.417969 160.757812 C 146.199219 160.65625 145.757812 160.441406 145.4375 160.277344 C 145.121094 160.117188 144.757812 159.925781 144.628906 159.855469 C 144.507812 159.789062 144.398438 159.734375 144.390625 159.738281 C 144.386719 159.738281 144.363281 159.910156 144.335938 160.117188 C 144.3125 160.324219 144.285156 160.574219 144.28125 160.667969 C 144.269531 160.789062 144.277344 160.855469 144.308594 160.878906 C 144.328125 160.898438 144.570312 161.050781 144.839844 161.214844 C 145.105469 161.382812 145.519531 161.617188 145.75 161.738281 C 145.984375 161.859375 146.367188 162.042969 146.605469 162.144531 C 146.84375 162.25 147.265625 162.417969 147.539062 162.523438 C 147.820312 162.625 148.25 162.777344 148.496094 162.863281 C 148.75 162.945312 149.125 163.070312 149.339844 163.136719 C 149.554688 163.199219 149.980469 163.320312 150.285156 163.402344 C 150.59375 163.484375 151.011719 163.597656 151.222656 163.652344 C 151.429688 163.710938 152 163.84375 152.492188 163.945312 C 152.984375 164.046875 153.566406 164.15625 153.789062 164.195312 C 154.011719 164.230469 154.4375 164.292969 154.738281 164.332031 C 155.035156 164.371094 155.5 164.421875 155.761719 164.445312 C 156.027344 164.472656 156.417969 164.496094 156.628906 164.511719 C 156.839844 164.519531 157.296875 164.53125 157.648438 164.527344 C 157.996094 164.523438 158.480469 164.511719 158.722656 164.496094 C 158.964844 164.480469 159.429688 164.433594 159.757812 164.390625 C 160.085938 164.351562 160.722656 164.261719 161.175781 164.1875 C 161.628906 164.117188 162.117188 164.03125 162.261719 163.996094 C 162.519531 163.941406 162.519531 163.9375 162.566406 163.820312 C 162.59375 163.761719 162.683594 163.421875 162.765625 163.070312 C 162.851562 162.71875 162.917969 162.402344 162.917969 162.359375 L 162.910156 162.28125 Z M 162.320312 162.347656 " fill-opacity="1" fill-rule="evenodd"/></g></g></g><g fill="#000000" fill-opacity="1"><g transform="translate(131.977264, 109.489665)"><g><path d="M 1.359375 -18.078125 L 6.9375 -18.375 C 9.488281 -18.5 11.359375 -18.222656 12.546875 -17.546875 C 13.734375 -16.878906 14.363281 -15.757812 14.4375 -14.1875 C 14.5 -13.101562 14.289062 -12.203125 13.8125 -11.484375 C 13.34375 -10.773438 12.695312 -10.332031 11.875 -10.15625 L 11.875 -10.03125 C 13.03125 -9.84375 13.875 -9.410156 14.40625 -8.734375 C 14.945312 -8.066406 15.25 -7.160156 15.3125 -6.015625 C 15.394531 -4.367188 14.867188 -3.054688 13.734375 -2.078125 C 12.597656 -1.097656 11.007812 -0.554688 8.96875 -0.453125 L 2.265625 -0.109375 Z M 5.515625 -11.15625 L 7.734375 -11.265625 C 8.765625 -11.316406 9.503906 -11.515625 9.953125 -11.859375 C 10.398438 -12.203125 10.601562 -12.742188 10.5625 -13.484375 C 10.53125 -14.171875 10.253906 -14.648438 9.734375 -14.921875 C 9.210938 -15.203125 8.40625 -15.3125 7.3125 -15.25 L 5.3125 -15.15625 Z M 5.671875 -8.125 L 5.90625 -3.46875 L 8.390625 -3.59375 C 9.441406 -3.644531 10.207031 -3.882812 10.6875 -4.3125 C 11.164062 -4.738281 11.382812 -5.363281 11.34375 -6.1875 C 11.269531 -7.664062 10.164062 -8.347656 8.03125 -8.234375 Z M 5.671875 -8.125 "/></g></g></g><g fill="#000000" fill-opacity="1"><g transform="translate(148.882252, 108.630107)"><g><path d="M 0.9375 -17.375 C 0.875 -18.59375 1.519531 -19.234375 2.875 -19.296875 C 4.238281 -19.367188 4.953125 -18.796875 5.015625 -17.578125 C 5.046875 -17.003906 4.898438 -16.546875 4.578125 -16.203125 C 4.253906 -15.859375 3.75 -15.664062 3.0625 -15.625 C 1.707031 -15.5625 1 -16.144531 0.9375 -17.375 Z M 5.71875 -0.296875 L 1.96875 -0.09375 L 1.265625 -13.828125 L 5.015625 -14.03125 Z M 5.71875 -0.296875 "/></g></g></g><g fill="#000000" fill-opacity="1"><g transform="translate(156.560757, 108.239682)"><g><path d="M 8.90625 -14.484375 C 9.414062 -14.515625 9.84375 -14.492188 10.1875 -14.421875 L 10.078125 -10.90625 C 9.773438 -10.96875 9.40625 -10.988281 8.96875 -10.96875 C 7.769531 -10.90625 6.851562 -10.550781 6.21875 -9.90625 C 5.59375 -9.257812 5.304688 -8.382812 5.359375 -7.28125 L 5.71875 -0.296875 L 1.96875 -0.09375 L 1.265625 -13.828125 L 4.109375 -13.984375 L 4.78125 -11.6875 L 4.96875 -11.703125 C 5.34375 -12.492188 5.878906 -13.144531 6.578125 -13.65625 C 7.273438 -14.164062 8.050781 -14.441406 8.90625 -14.484375 Z M 8.90625 -14.484375 "/></g></g></g><g fill="#000000" fill-opacity="1"><g transform="translate(167.986367, 107.658731)"><g><path d="M 7.609375 -3.140625 C 8.265625 -3.171875 9.046875 -3.351562 9.953125 -3.6875 L 10.09375 -0.890625 C 9.175781 -0.421875 8.035156 -0.15625 6.671875 -0.09375 C 5.179688 -0.0078125 4.070312 -0.332031 3.34375 -1.0625 C 2.625 -1.789062 2.226562 -2.910156 2.15625 -4.421875 L 1.8125 -11.046875 L 0.015625 -10.953125 L -0.0625 -12.53125 L 1.9375 -13.90625 L 2.875 -16.84375 L 5.265625 -16.96875 L 5.40625 -14.046875 L 9.25 -14.234375 L 9.390625 -11.421875 L 5.546875 -11.234375 L 5.890625 -4.609375 C 5.921875 -4.078125 6.085938 -3.691406 6.390625 -3.453125 C 6.703125 -3.222656 7.109375 -3.117188 7.609375 -3.140625 Z M 7.609375 -3.140625 "/></g></g></g><g fill="#000000" fill-opacity="1"><g transform="translate(178.90827, 107.103392)"><g><path d="M 14.640625 -0.75 L 10.890625 -0.546875 L 10.484375 -8.5625 C 10.378906 -10.539062 9.585938 -11.492188 8.109375 -11.421875 C 7.066406 -11.367188 6.332031 -10.976562 5.90625 -10.25 C 5.476562 -9.519531 5.304688 -8.351562 5.390625 -6.75 L 5.71875 -0.296875 L 1.96875 -0.09375 L 1 -19.203125 L 4.75 -19.40625 L 4.953125 -15.515625 C 4.960938 -15.210938 4.960938 -14.492188 4.953125 -13.359375 L 4.9375 -12.25 L 5.140625 -12.265625 C 5.890625 -13.660156 7.175781 -14.40625 9 -14.5 C 10.613281 -14.570312 11.859375 -14.195312 12.734375 -13.375 C 13.617188 -12.550781 14.101562 -11.328125 14.1875 -9.703125 Z M 14.640625 -0.75 "/></g></g></g><g fill="#000000" fill-opacity="1"><g transform="translate(195.44469, 106.262574)"><g><path d="M 6.328125 -0.078125 C 4.722656 0.00390625 3.425781 -0.554688 2.4375 -1.765625 C 1.445312 -2.972656 0.894531 -4.679688 0.78125 -6.890625 C 0.664062 -9.148438 1.046875 -10.929688 1.921875 -12.234375 C 2.796875 -13.546875 4.050781 -14.242188 5.6875 -14.328125 C 7.414062 -14.410156 8.769531 -13.800781 9.75 -12.5 L 9.875 -12.5 C 9.632812 -13.519531 9.492188 -14.429688 9.453125 -15.234375 L 9.234375 -19.625 L 13 -19.8125 L 13.96875 -0.703125 L 11.09375 -0.5625 L 10.265625 -2.3125 L 10.109375 -2.296875 C 9.328125 -0.898438 8.066406 -0.160156 6.328125 -0.078125 Z M 7.484375 -3.140625 C 8.441406 -3.179688 9.128906 -3.492188 9.546875 -4.078125 C 9.972656 -4.660156 10.171875 -5.613281 10.140625 -6.9375 L 10.125 -7.34375 C 10.050781 -8.820312 9.765625 -9.867188 9.265625 -10.484375 C 8.773438 -11.097656 8.019531 -11.378906 7 -11.328125 C 6.164062 -11.285156 5.535156 -10.894531 5.109375 -10.15625 C 4.691406 -9.425781 4.519531 -8.382812 4.59375 -7.03125 C 4.664062 -5.6875 4.945312 -4.691406 5.4375 -4.046875 C 5.925781 -3.398438 6.609375 -3.097656 7.484375 -3.140625 Z M 7.484375 -3.140625 "/></g></g></g><g fill="#000000" fill-opacity="1"><g transform="translate(211.36683, 105.45299)"><g><path d="M 10.6875 -0.546875 L 9.859375 -2.375 L 9.765625 -2.375 C 9.171875 -1.539062 8.546875 -0.953125 7.890625 -0.609375 C 7.242188 -0.265625 6.390625 -0.0664062 5.328125 -0.015625 C 4.003906 0.046875 2.941406 -0.273438 2.140625 -0.984375 C 1.347656 -1.703125 0.921875 -2.757812 0.859375 -4.15625 C 0.785156 -5.601562 1.238281 -6.695312 2.21875 -7.4375 C 3.207031 -8.1875 4.71875 -8.648438 6.75 -8.828125 L 9.140625 -9.03125 L 9.109375 -9.625 C 9.035156 -11.019531 8.285156 -11.679688 6.859375 -11.609375 C 5.773438 -11.554688 4.507812 -11.160156 3.0625 -10.421875 L 1.6875 -12.90625 C 3.21875 -13.800781 4.941406 -14.300781 6.859375 -14.40625 C 8.710938 -14.5 10.148438 -14.164062 11.171875 -13.40625 C 12.191406 -12.65625 12.742188 -11.457031 12.828125 -9.8125 L 13.296875 -0.671875 Z M 9.25 -6.84375 L 7.796875 -6.71875 C 6.710938 -6.625 5.914062 -6.382812 5.40625 -6 C 4.894531 -5.625 4.660156 -5.066406 4.703125 -4.328125 C 4.753906 -3.273438 5.382812 -2.78125 6.59375 -2.84375 C 7.457031 -2.882812 8.132812 -3.164062 8.625 -3.6875 C 9.125 -4.21875 9.351562 -4.894531 9.3125 -5.71875 Z M 9.25 -6.84375 "/></g></g></g><g fill="#000000" fill-opacity="1"><g transform="translate(226.564123, 104.680262)"><g><path d="M -0.703125 -13.734375 L 3.40625 -13.9375 L 6.375 -6.359375 C 6.632812 -5.691406 6.828125 -4.898438 6.953125 -3.984375 L 7.03125 -4 C 7.070312 -4.84375 7.207031 -5.644531 7.4375 -6.40625 L 9.59375 -14.265625 L 13.609375 -14.46875 L 8.59375 1.328125 C 8.132812 2.785156 7.429688 3.894531 6.484375 4.65625 C 5.535156 5.414062 4.398438 5.828125 3.078125 5.890625 C 2.429688 5.921875 1.789062 5.890625 1.15625 5.796875 L 1 2.8125 C 1.457031 2.90625 1.957031 2.9375 2.5 2.90625 C 3.15625 2.875 3.722656 2.640625 4.203125 2.203125 C 4.679688 1.773438 5.035156 1.144531 5.265625 0.3125 L 5.453125 -0.375 Z M -0.703125 -13.734375 "/></g></g></g><g fill="#000000" fill-opacity="1"><g transform="translate(165.452593, 164.343834)"><g><path d="M 6.078125 -7.578125 L 7.15625 -7.46875 C 8.144531 -7.351562 8.914062 -7.46875 9.46875 -7.8125 C 10.019531 -8.164062 10.332031 -8.71875 10.40625 -9.46875 C 10.488281 -10.238281 10.335938 -10.828125 9.953125 -11.234375 C 9.578125 -11.640625 8.945312 -11.890625 8.0625 -11.984375 L 6.578125 -12.140625 Z M 13.703125 -9.21875 C 13.523438 -7.5625 12.867188 -6.351562 11.734375 -5.59375 C 10.609375 -4.832031 9.097656 -4.550781 7.203125 -4.75 L 5.796875 -4.90625 L 5.203125 0.5625 L 1.9375 0.203125 L 3.59375 -15.171875 L 8.5 -14.640625 C 10.363281 -14.429688 11.738281 -13.875 12.625 -12.96875 C 13.519531 -12.0625 13.878906 -10.8125 13.703125 -9.21875 Z M 13.703125 -9.21875 "/></g></g></g><g fill="#000000" fill-opacity="1"><g transform="translate(178.981014, 165.805294)"><g><path d="M 9.15625 0.984375 L 8.703125 -0.671875 L 8.625 -0.6875 C 8.007812 -0.0625 7.398438 0.347656 6.796875 0.546875 C 6.191406 0.753906 5.429688 0.804688 4.515625 0.703125 C 3.390625 0.585938 2.535156 0.171875 1.953125 -0.546875 C 1.378906 -1.265625 1.15625 -2.222656 1.28125 -3.421875 C 1.414062 -4.671875 1.953125 -5.539062 2.890625 -6.03125 C 3.835938 -6.53125 5.191406 -6.710938 6.953125 -6.578125 L 9 -6.421875 L 9.046875 -6.953125 C 9.179688 -8.140625 8.640625 -8.800781 7.421875 -8.9375 C 6.484375 -9.039062 5.347656 -8.878906 4.015625 -8.453125 L 3.1875 -10.71875 C 4.601562 -11.289062 6.144531 -11.488281 7.8125 -11.3125 C 9.382812 -11.144531 10.550781 -10.664062 11.3125 -9.875 C 12.082031 -9.09375 12.390625 -8.003906 12.234375 -6.609375 L 11.390625 1.234375 Z M 8.796875 -4.5625 L 7.53125 -4.65625 C 6.601562 -4.726562 5.894531 -4.632812 5.40625 -4.375 C 4.914062 -4.113281 4.632812 -3.671875 4.5625 -3.046875 C 4.46875 -2.128906 4.941406 -1.613281 5.984375 -1.5 C 6.722656 -1.425781 7.335938 -1.578125 7.828125 -1.953125 C 8.328125 -2.335938 8.613281 -2.882812 8.6875 -3.59375 Z M 8.796875 -4.5625 "/></g></g></g><g fill="#000000" fill-opacity="1"><g transform="translate(191.993968, 167.211068)"><g><path d="M 9.546875 -11.09375 C 9.984375 -11.039062 10.34375 -10.96875 10.625 -10.875 L 10.046875 -7.90625 C 9.796875 -8 9.484375 -8.066406 9.109375 -8.109375 C 8.085938 -8.210938 7.257812 -8.03125 6.625 -7.5625 C 6 -7.101562 5.632812 -6.398438 5.53125 -5.453125 L 4.890625 0.53125 L 1.671875 0.1875 L 2.9375 -11.578125 L 5.375 -11.328125 L 5.640625 -9.28125 L 5.796875 -9.265625 C 6.242188 -9.890625 6.796875 -10.367188 7.453125 -10.703125 C 8.117188 -11.035156 8.816406 -11.164062 9.546875 -11.09375 Z M 9.546875 -11.09375 "/></g></g></g><g fill="#000000" fill-opacity="1"><g transform="translate(201.777351, 168.267956)"><g><path d="M 6.890625 -1.625 C 7.453125 -1.5625 8.140625 -1.613281 8.953125 -1.78125 L 8.6875 0.609375 C 7.84375 0.890625 6.84375 0.96875 5.6875 0.84375 C 4.40625 0.695312 3.503906 0.269531 2.984375 -0.4375 C 2.472656 -1.15625 2.285156 -2.164062 2.421875 -3.46875 L 3.046875 -9.140625 L 1.515625 -9.3125 L 1.65625 -10.65625 L 3.546875 -11.546875 L 4.734375 -13.921875 L 6.78125 -13.703125 L 6.5 -11.203125 L 9.796875 -10.84375 L 9.546875 -8.4375 L 6.25 -8.796875 L 5.625 -3.125 C 5.582031 -2.664062 5.675781 -2.3125 5.90625 -2.0625 C 6.144531 -1.8125 6.472656 -1.664062 6.890625 -1.625 Z M 6.890625 -1.625 "/></g></g></g><g fill="#000000" fill-opacity="1"><g transform="translate(211.129427, 169.278249)"><g><path d="M 1.265625 -11.765625 L 4.78125 -11.390625 L 6.296875 -4.515625 C 6.421875 -3.921875 6.472656 -3.234375 6.453125 -2.453125 L 6.515625 -2.4375 C 6.679688 -3.144531 6.910156 -3.804688 7.203125 -4.421875 L 10.09375 -10.8125 L 13.515625 -10.4375 L 7.125 2.28125 C 6.539062 3.46875 5.785156 4.316406 4.859375 4.828125 C 3.941406 5.347656 2.921875 5.546875 1.796875 5.421875 C 1.242188 5.367188 0.707031 5.253906 0.1875 5.078125 L 0.46875 2.53125 C 0.851562 2.664062 1.269531 2.757812 1.71875 2.8125 C 2.289062 2.875 2.800781 2.75 3.25 2.4375 C 3.707031 2.132812 4.101562 1.648438 4.4375 0.984375 L 4.6875 0.421875 Z M 1.265625 -11.765625 "/></g></g></g><g fill="#000000" fill-opacity="1"><g transform="translate(142.522225, 223.855711)"><g><path d="M 5 -7.828125 L 6.03125 -7.828125 C 6.988281 -7.828125 7.707031 -8.015625 8.1875 -8.390625 C 8.664062 -8.773438 8.90625 -9.332031 8.90625 -10.0625 C 8.90625 -10.800781 8.703125 -11.34375 8.296875 -11.6875 C 7.898438 -12.039062 7.273438 -12.21875 6.421875 -12.21875 L 5 -12.21875 Z M 12.078125 -10.171875 C 12.078125 -8.585938 11.578125 -7.375 10.578125 -6.53125 C 9.585938 -5.6875 8.175781 -5.265625 6.34375 -5.265625 L 5 -5.265625 L 5 0 L 1.859375 0 L 1.859375 -14.796875 L 6.578125 -14.796875 C 8.378906 -14.796875 9.742188 -14.40625 10.671875 -13.625 C 11.609375 -12.851562 12.078125 -11.703125 12.078125 -10.171875 Z M 12.078125 -10.171875 "/></g></g></g><g fill="#000000" fill-opacity="1"><g transform="translate(155.527337, 223.855711)"><g><path d="M 7.9375 -11.515625 C 8.351562 -11.515625 8.695312 -11.488281 8.96875 -11.4375 L 8.734375 -8.53125 C 8.484375 -8.601562 8.179688 -8.640625 7.828125 -8.640625 C 6.847656 -8.640625 6.082031 -8.382812 5.53125 -7.875 C 4.976562 -7.375 4.703125 -6.664062 4.703125 -5.75 L 4.703125 0 L 1.625 0 L 1.625 -11.3125 L 3.953125 -11.3125 L 4.40625 -9.40625 L 4.5625 -9.40625 C 4.914062 -10.039062 5.390625 -10.550781 5.984375 -10.9375 C 6.578125 -11.320312 7.226562 -11.515625 7.9375 -11.515625 Z M 7.9375 -11.515625 "/></g></g></g><g fill="#000000" fill-opacity="1"><g transform="translate(164.932278, 223.855711)"><g><path d="M 4.078125 -5.671875 C 4.078125 -4.554688 4.257812 -3.710938 4.625 -3.140625 C 5 -2.566406 5.597656 -2.28125 6.421875 -2.28125 C 7.242188 -2.28125 7.832031 -2.5625 8.1875 -3.125 C 8.550781 -3.695312 8.734375 -4.546875 8.734375 -5.671875 C 8.734375 -6.796875 8.550781 -7.632812 8.1875 -8.1875 C 7.820312 -8.75 7.226562 -9.03125 6.40625 -9.03125 C 5.582031 -9.03125 4.988281 -8.75 4.625 -8.1875 C 4.257812 -7.632812 4.078125 -6.796875 4.078125 -5.671875 Z M 11.890625 -5.671875 C 11.890625 -3.828125 11.40625 -2.382812 10.4375 -1.34375 C 9.46875 -0.3125 8.117188 0.203125 6.390625 0.203125 C 5.296875 0.203125 4.332031 -0.03125 3.5 -0.5 C 2.675781 -0.976562 2.039062 -1.660156 1.59375 -2.546875 C 1.15625 -3.441406 0.9375 -4.484375 0.9375 -5.671875 C 0.9375 -7.523438 1.414062 -8.960938 2.375 -9.984375 C 3.34375 -11.003906 4.695312 -11.515625 6.4375 -11.515625 C 7.53125 -11.515625 8.488281 -11.28125 9.3125 -10.8125 C 10.144531 -10.34375 10.78125 -9.664062 11.21875 -8.78125 C 11.664062 -7.894531 11.890625 -6.859375 11.890625 -5.671875 Z M 11.890625 -5.671875 "/></g></g></g><g fill="#000000" fill-opacity="1"><g transform="translate(177.755358, 223.855711)"><g><path d="M 6.390625 -2.25 C 6.921875 -2.25 7.566406 -2.367188 8.328125 -2.609375 L 8.328125 -0.3125 C 7.554688 0.03125 6.613281 0.203125 5.5 0.203125 C 4.257812 0.203125 3.359375 -0.109375 2.796875 -0.734375 C 2.234375 -1.359375 1.953125 -2.296875 1.953125 -3.546875 L 1.953125 -9 L 0.46875 -9 L 0.46875 -10.296875 L 2.171875 -11.328125 L 3.0625 -13.71875 L 5.03125 -13.71875 L 5.03125 -11.3125 L 8.203125 -11.3125 L 8.203125 -9 L 5.03125 -9 L 5.03125 -3.546875 C 5.03125 -3.109375 5.15625 -2.78125 5.40625 -2.5625 C 5.65625 -2.351562 5.984375 -2.25 6.390625 -2.25 Z M 6.390625 -2.25 "/></g></g></g><g fill="#000000" fill-opacity="1"><g transform="translate(186.745676, 223.855711)"><g><path d="M 4.078125 -5.671875 C 4.078125 -4.554688 4.257812 -3.710938 4.625 -3.140625 C 5 -2.566406 5.597656 -2.28125 6.421875 -2.28125 C 7.242188 -2.28125 7.832031 -2.5625 8.1875 -3.125 C 8.550781 -3.695312 8.734375 -4.546875 8.734375 -5.671875 C 8.734375 -6.796875 8.550781 -7.632812 8.1875 -8.1875 C 7.820312 -8.75 7.226562 -9.03125 6.40625 -9.03125 C 5.582031 -9.03125 4.988281 -8.75 4.625 -8.1875 C 4.257812 -7.632812 4.078125 -6.796875 4.078125 -5.671875 Z M 11.890625 -5.671875 C 11.890625 -3.828125 11.40625 -2.382812 10.4375 -1.34375 C 9.46875 -0.3125 8.117188 0.203125 6.390625 0.203125 C 5.296875 0.203125 4.332031 -0.03125 3.5 -0.5 C 2.675781 -0.976562 2.039062 -1.660156 1.59375 -2.546875 C 1.15625 -3.441406 0.9375 -4.484375 0.9375 -5.671875 C 0.9375 -7.523438 1.414062 -8.960938 2.375 -9.984375 C 3.34375 -11.003906 4.695312 -11.515625 6.4375 -11.515625 C 7.53125 -11.515625 8.488281 -11.28125 9.3125 -10.8125 C 10.144531 -10.34375 10.78125 -9.664062 11.21875 -8.78125 C 11.664062 -7.894531 11.890625 -6.859375 11.890625 -5.671875 Z M 11.890625 -5.671875 "/></g></g></g><g fill="#000000" fill-opacity="1"><g transform="translate(199.568756, 223.855711)"><g><path d="M 6.21875 0.203125 C 2.695312 0.203125 0.9375 -1.726562 0.9375 -5.59375 C 0.9375 -7.519531 1.410156 -8.988281 2.359375 -10 C 3.316406 -11.007812 4.691406 -11.515625 6.484375 -11.515625 C 7.796875 -11.515625 8.96875 -11.257812 10 -10.75 L 9.09375 -8.359375 C 8.601562 -8.554688 8.148438 -8.71875 7.734375 -8.84375 C 7.316406 -8.96875 6.898438 -9.03125 6.484375 -9.03125 C 4.878906 -9.03125 4.078125 -7.890625 4.078125 -5.609375 C 4.078125 -3.398438 4.878906 -2.296875 6.484375 -2.296875 C 7.078125 -2.296875 7.625 -2.375 8.125 -2.53125 C 8.632812 -2.6875 9.144531 -2.9375 9.65625 -3.28125 L 9.65625 -0.640625 C 9.15625 -0.316406 8.648438 -0.0976562 8.140625 0.015625 C 7.628906 0.140625 6.988281 0.203125 6.21875 0.203125 Z M 6.21875 0.203125 "/></g></g></g><g fill="#000000" fill-opacity="1"><g transform="translate(210.217579, 223.855711)"><g><path d="M 4.078125 -5.671875 C 4.078125 -4.554688 4.257812 -3.710938 4.625 -3.140625 C 5 -2.566406 5.597656 -2.28125 6.421875 -2.28125 C 7.242188 -2.28125 7.832031 -2.5625 8.1875 -3.125 C 8.550781 -3.695312 8.734375 -4.546875 8.734375 -5.671875 C 8.734375 -6.796875 8.550781 -7.632812 8.1875 -8.1875 C 7.820312 -8.75 7.226562 -9.03125 6.40625 -9.03125 C 5.582031 -9.03125 4.988281 -8.75 4.625 -8.1875 C 4.257812 -7.632812 4.078125 -6.796875 4.078125 -5.671875 Z M 11.890625 -5.671875 C 11.890625 -3.828125 11.40625 -2.382812 10.4375 -1.34375 C 9.46875 -0.3125 8.117188 0.203125 6.390625 0.203125 C 5.296875 0.203125 4.332031 -0.03125 3.5 -0.5 C 2.675781 -0.976562 2.039062 -1.660156 1.59375 -2.546875 C 1.15625 -3.441406 0.9375 -4.484375 0.9375 -5.671875 C 0.9375 -7.523438 1.414062 -8.960938 2.375 -9.984375 C 3.34375 -11.003906 4.695312 -11.515625 6.4375 -11.515625 C 7.53125 -11.515625 8.488281 -11.28125 9.3125 -10.8125 C 10.144531 -10.34375 10.78125 -9.664062 11.21875 -8.78125 C 11.664062 -7.894531 11.890625 -6.859375 11.890625 -5.671875 Z M 11.890625 -5.671875 "/></g></g></g><g fill="#000000" fill-opacity="1"><g transform="translate(223.04066, 223.855711)"><g><path d="M 4.703125 0 L 1.625 0 L 1.625 -15.734375 L 4.703125 -15.734375 Z M 4.703125 0 "/></g></g></g></svg>